<?xml version="1.0" standalone="no"?>
<!DOCTYPE svg PUBLIC "-//W3C//DTD SVG 20010904//EN"
 "http://www.w3.org/TR/2001/REC-SVG-20010904/DTD/svg10.dtd">
<svg version="1.0" xmlns="http://www.w3.org/2000/svg"
 width="912.000000pt" height="568.000000pt" viewBox="0 0 912.000000 568.000000"
 preserveAspectRatio="xMidYMid meet">

<g transform="translate(0.000000,568.000000) scale(0.100000,-0.100000)"
fill="#000000" stroke="none">
<path d="M1069 5380 c-43 -13 -74 -38 -97 -79 l-22 -38 0 -2372 0 -2371 1445
0 c1419 0 1445 0 1445 -19 0 -25 47 -81 67 -81 12 0 14 10 11 45 -2 31 1 46
10 50 20 8 1061 4 1182 -5 58 -3 86 -7 63 -8 -42 -2 -43 -3 -43 -36 0 -28 -4
-35 -33 -44 -28 -10 -22 -11 47 -9 74 2 80 4 107 35 16 18 29 41 29 52 0 20
10 20 1445 20 l1445 0 -2 2383 -3 2382 -23 31 c-13 16 -37 39 -55 50 -31 19
-90 19 -3512 21 -1914 1 -3492 -2 -3506 -7z m699 -59 l-118 -6 -85 -84 c-46
-47 -82 -87 -79 -90 3 -3 233 -4 512 -3 413 3 505 1 494 -10 -10 -10 -8 -16
10 -31 l23 -19 -23 5 c-12 3 -20 1 -16 -4 8 -13 44 -11 44 2 0 7 -8 18 -17 26
-17 14 -17 14 0 9 19 -6 24 10 5 17 -7 3 20 6 60 6 67 1 92 -9 57 -23 -23 -8
-19 -46 5 -46 16 0 20 7 20 36 l0 36 1790 -3 c1583 -4 1790 -6 1790 -19 0 -13
1 -13 10 0 8 12 13 13 29 3 18 -11 20 -10 15 5 -5 16 -5 16 9 0 8 -10 20 -18
28 -19 8 0 6 -4 -6 -10 -19 -9 -19 -9 0 -6 11 1 22 12 25 27 5 21 7 22 13 8 3
-10 14 -18 24 -17 16 0 16 1 -1 8 -19 7 -19 8 2 13 16 5 22 2 22 -10 0 -13 3
-12 15 4 14 19 14 19 15 -1 0 -15 2 -17 9 -6 6 9 11 10 15 2 11 -18 46 -13 47
7 1 16 2 16 6 0 6 -23 43 -24 43 -2 0 14 64 16 694 12 382 -1 698 -7 703 -11
9 -10 17 -4217 8 -4324 l-7 -73 -854 0 c-841 0 -854 0 -874 20 -11 11 -27 20
-36 20 -23 0 -55 -20 -49 -31 4 -5 -393 -9 -1069 -9 l-1075 0 6 35 c7 42 -12
48 -29 10 -11 -25 -24 -32 -30 -16 -1 4 -14 12 -27 16 -20 6 -23 4 -18 -9 5
-12 0 -16 -16 -17 -21 -1 -21 -1 3 -9 l25 -8 -27 -1 c-16 -1 -28 4 -29 12 0
10 -2 10 -6 0 -4 -10 -288 -13 -1374 -13 l-1369 0 0 2022 0 2022 -45 -44 c-44
-43 -45 -46 -47 -110 -3 -140 -16 134 -17 378 -1 198 2 248 14 272 32 62 20
60 465 58 223 -1 352 -4 288 -7z m4567 -191 c3 -5 1 -10 -4 -10 -6 0 -11 5
-11 10 0 6 2 10 4 10 3 0 8 -4 11 -10z m160 0 c3 -5 -1 -10 -10 -10 -9 0 -13
5 -10 10 3 6 8 10 10 10 2 0 7 -4 10 -10z m-3845 -41 c0 -5 -4 -9 -10 -9 -5 0
-10 7 -10 16 0 8 5 12 10 9 6 -3 10 -10 10 -16z m3569 -4338 c9 -6 10 -10 2
-16 -7 -4 -18 -2 -25 5 -11 8 -15 8 -19 -2 -2 -7 -8 -10 -12 -6 -21 20 26 37
54 19z m-2229 -13 c0 -5 -13 -8 -30 -8 -16 0 -30 3 -30 8 0 4 14 7 30 7 17 0
30 -3 30 -7z"/>
<path d="M1350 5131 c0 -6 4 -13 10 -16 6 -3 7 1 4 9 -7 18 -14 21 -14 7z"/>
<path d="M2540 5102 c0 -18 4 -32 8 -32 9 0 8 47 -1 57 -4 3 -7 -8 -7 -25z"/>
<path d="M2768 5125 c-7 -7 3 -55 11 -55 8 0 7 47 -1 55 -2 3 -7 3 -10 0z"/>
<path d="M2571 5098 c-1 -22 4 -28 19 -28 15 0 20 6 19 28 -2 23 -2 24 -6 5
-2 -13 -8 -23 -13 -23 -5 0 -11 10 -13 23 -4 19 -4 18 -6 -5z"/>
<path d="M2677 5114 c-14 -14 -7 -44 11 -44 14 0 15 2 2 10 -13 8 -12 10 3 10
10 0 17 5 15 12 -5 14 -22 21 -31 12z"/>
<path d="M2727 5113 c-4 -3 -7 -16 -6 -27 1 -18 2 -18 9 4 8 24 8 24 9 3 1
-21 21 -34 21 -14 0 30 -19 49 -33 34z"/>
<path d="M2795 5110 c-3 -5 1 -13 10 -16 13 -6 14 -8 3 -15 -10 -7 -9 -9 4 -9
13 0 17 6 15 22 -4 24 -22 35 -32 18z"/>
<path d="M3937 5102 c-2 -9 -8 -26 -13 -37 -7 -18 -6 -18 9 -6 14 11 20 11 32
1 13 -11 13 -8 4 19 -13 38 -25 47 -32 23z"/>
<path d="M4170 5110 c0 -5 -7 -10 -16 -10 -22 0 -14 -44 9 -48 14 -3 17 4 17
32 0 20 -2 36 -5 36 -3 0 -5 -4 -5 -10z m0 -35 c0 -8 -4 -15 -10 -15 -5 0 -10
7 -10 15 0 8 5 15 10 15 6 0 10 -7 10 -15z"/>
<path d="M3549 5093 c-13 -16 -12 -17 4 -4 16 13 21 21 13 21 -2 0 -10 -8 -17
-17z"/>
<path d="M3987 5081 c8 -34 13 -39 13 -13 0 29 17 28 23 0 3 -17 5 -15 6 8 1
27 -2 32 -24 32 -22 0 -24 -4 -18 -27z"/>
<path d="M4043 5084 c-7 -18 11 -39 26 -30 17 11 13 46 -4 46 -9 0 -18 -7 -22
-16z"/>
<path d="M4091 5073 c2 -24 2 -25 6 -5 2 12 8 22 13 22 5 0 11 -10 13 -22 4
-20 4 -19 6 5 1 21 -4 27 -19 27 -15 0 -20 -6 -19 -27z"/>
<path d="M4205 5091 c17 -8 18 -10 3 -10 -20 -1 -24 -16 -6 -27 7 -5 8 -3 3 7
-7 11 -6 11 9 -1 16 -13 18 -12 14 10 -2 16 -10 26 -23 27 l-20 3 20 -9z"/>
<path d="M4241 5073 c2 -24 2 -25 6 -5 2 12 8 22 13 22 5 0 11 -10 13 -22 4
-20 4 -19 6 5 1 21 -4 27 -19 27 -15 0 -20 -6 -19 -27z"/>
<path d="M4290 5081 c0 -25 17 -36 35 -21 9 7 15 8 20 0 11 -18 25 -11 25 15
0 31 -19 32 -45 3 -13 -16 -20 -19 -23 -9 -2 7 2 17 9 22 11 7 10 9 -3 9 -11
0 -18 -8 -18 -19z"/>
<path d="M5186 5085 c6 -14 34 -16 34 -1 0 5 6 2 13 -8 12 -16 14 -16 14 -2 0
9 -3 16 -6 17 -38 6 -58 4 -55 -6z"/>
<path d="M5290 5086 c0 -9 5 -16 10 -16 6 0 10 4 10 9 0 6 -4 13 -10 16 -5 3
-10 -1 -10 -9z"/>
<path d="M5327 5084 c3 -7 9 -14 14 -14 14 0 10 17 -5 23 -10 4 -13 1 -9 -9z"/>
<path d="M5402 5088 c6 -18 25 -20 31 -3 5 10 0 15 -14 15 -12 0 -19 -5 -17
-12z"/>
<path d="M5691 5088 c-1 -21 15 -32 25 -17 4 7 3 9 -4 5 -6 -3 -13 2 -15 11
-4 16 -5 16 -6 1z"/>
<path d="M5791 5086 c-1 -15 -4 -16 -15 -7 -10 9 -15 8 -19 -1 -3 -9 6 -13 28
-13 18 0 31 3 29 7 -2 3 -1 8 3 11 5 2 3 2 -4 1 -6 -2 -14 2 -17 9 -2 7 -5 4
-5 -7z"/>
<path d="M5857 5081 c-4 -17 -3 -21 5 -13 5 5 8 16 6 23 -3 8 -7 3 -11 -10z"/>
<path d="M5900 5096 c0 -2 6 -9 14 -15 10 -9 16 -8 26 4 11 13 8 15 -14 15
-14 0 -26 -2 -26 -4z"/>
<path d="M5260 5081 c0 -6 4 -12 8 -15 5 -3 9 1 9 9 0 8 -4 15 -9 15 -4 0 -8
-4 -8 -9z"/>
<path d="M1510 4933 c0 -6 8 -17 18 -24 16 -13 16 -13 2 6 -8 11 -16 22 -17
24 -2 2 -3 0 -3 -6z"/>
<path d="M1555 4920 c-4 -6 -3 -16 3 -22 6 -6 12 -6 17 2 4 6 3 16 -3 22 -6 6
-12 6 -17 -2z"/>
<path d="M1592 4910 c0 -14 2 -19 5 -12 2 6 2 18 0 25 -3 6 -5 1 -5 -13z"/>
<path d="M1664 4919 c-3 -6 -1 -16 5 -22 9 -9 10 -7 5 7 -6 15 -4 17 6 11 9
-5 11 -4 6 3 -9 15 -13 15 -22 1z"/>
<path d="M3924 4875 c-4 -9 -2 -21 4 -27 15 -15 44 -1 40 19 -4 23 -36 29 -44
8z"/>
<path d="M4482 4884 c9 -3 19 -13 22 -22 3 -12 4 -12 3 3 -1 12 -10 21 -22 22
-15 1 -15 0 -3 -3z"/>
<path d="M4081 4864 c0 -11 3 -14 6 -6 3 7 2 16 -1 19 -3 4 -6 -2 -5 -13z"/>
<path d="M4131 4864 c0 -11 3 -14 6 -6 3 7 2 16 -1 19 -3 4 -6 -2 -5 -13z"/>
<path d="M4161 4864 c0 -11 3 -14 6 -6 3 7 2 16 -1 19 -3 4 -6 -2 -5 -13z"/>
<path d="M4274 4869 c-3 -6 -1 -16 5 -22 9 -9 10 -7 5 8 -7 18 -6 18 9 6 9 -7
17 -9 17 -3 0 14 -28 23 -36 11z"/>
<path d="M4571 4864 c0 -11 3 -14 6 -6 3 7 2 16 -1 19 -3 4 -6 -2 -5 -13z"/>
<path d="M4593 4867 c-12 -19 14 -26 29 -8 16 18 15 20 -3 18 -11 -1 -23 -5
-26 -10z"/>
<path d="M4713 4865 c0 -8 4 -15 9 -15 4 0 8 4 8 9 0 6 -4 12 -8 15 -5 3 -9
-1 -9 -9z"/>
<path d="M4741 4868 c-1 -24 14 -31 29 -13 9 10 9 15 1 15 -6 0 -11 -6 -12
-12 0 -7 -4 -4 -9 7 -7 16 -9 17 -9 3z"/>
<path d="M4804 4869 c-3 -6 -1 -16 5 -22 9 -9 10 -7 5 8 -7 18 -6 18 9 6 9 -7
17 -9 17 -3 0 14 -28 23 -36 11z"/>
<path d="M4855 4869 c-11 -16 -1 -19 13 -3 7 8 8 14 3 14 -5 0 -13 -5 -16 -11z"/>
<path d="M4105 4861 c-3 -5 -1 -12 5 -16 5 -3 10 1 10 9 0 18 -6 21 -15 7z"/>
<path d="M4210 4861 c0 -6 4 -13 10 -16 6 -3 7 1 4 9 -7 18 -14 21 -14 7z"/>
<path d="M6310 4834 c0 -31 23 -28 28 4 2 15 -2 22 -12 22 -11 0 -16 -9 -16
-26z m17 -6 c-3 -8 -6 -5 -6 6 -1 11 2 17 5 13 3 -3 4 -12 1 -19z"/>
<path d="M6350 4846 c0 -9 6 -16 13 -16 8 0 7 -4 -3 -11 -13 -9 -13 -10 0 -6
18 5 20 39 3 45 -7 2 -13 -3 -13 -12z"/>
<path d="M6402 4838 c5 -32 28 -35 28 -4 0 17 -5 26 -16 26 -10 0 -14 -7 -12
-22z m15 -10 c-3 -8 -6 -5 -6 6 -1 11 2 17 5 13 3 -3 4 -12 1 -19z"/>
<path d="M6440 4835 c0 -16 6 -25 15 -25 9 0 15 9 15 25 0 16 -6 25 -15 25 -9
0 -15 -9 -15 -25z m17 -7 c-3 -8 -6 -5 -6 6 -1 11 2 17 5 13 3 -3 4 -12 1 -19z"/>
<path d="M6507 4833 c5 -12 3 -14 -7 -8 -9 5 -11 4 -6 -3 11 -19 26 -14 26 8
0 11 -4 20 -10 20 -5 0 -6 -7 -3 -17z"/>
<path d="M6531 4828 c0 -22 1 -22 9 -3 l9 20 1 -20 c1 -15 3 -16 7 -5 3 8 11
18 17 22 6 4 -1 8 -16 8 -23 0 -28 -4 -27 -22z"/>
<path d="M6742 4785 c0 -16 2 -22 5 -12 2 9 2 23 0 30 -3 6 -5 -1 -5 -18z"/>
<path d="M6767 4797 c-3 -8 -1 -20 4 -28 6 -10 9 -7 9 14 0 29 -5 35 -13 14z"/>
<path d="M7117 4791 c-3 -11 -2 -22 1 -25 10 -10 32 -6 32 5 0 6 -7 8 -17 4
-15 -5 -16 -4 -5 6 14 15 16 29 3 29 -5 0 -11 -9 -14 -19z"/>
<path d="M7197 4793 c4 -11 3 -14 -5 -9 -7 4 -12 3 -12 -2 0 -19 38 -19 54 -1
14 16 14 19 1 19 -8 0 -15 -8 -16 -17 0 -14 -2 -13 -9 5 -5 12 -12 22 -14 22
-3 0 -2 -7 1 -17z"/>
<path d="M7642 4785 c0 -16 2 -22 5 -12 2 9 2 23 0 30 -3 6 -5 -1 -5 -18z"/>
<path d="M6790 4780 c0 -13 5 -20 13 -17 6 2 12 10 12 17 0 7 -6 15 -12 18 -8
2 -13 -5 -13 -18z"/>
<path d="M6831 4778 c0 -22 1 -22 9 -3 l9 20 1 -20 1 -20 8 20 8 20 5 -20 c5
-18 6 -18 7 3 1 17 -4 22 -24 22 -19 0 -25 -5 -24 -22z"/>
<path d="M6895 4790 c-8 -13 3 -30 18 -29 9 0 9 2 0 6 -7 2 -13 9 -13 14 0 6
5 7 10 4 6 -3 10 -1 10 4 0 14 -17 14 -25 1z"/>
<path d="M6931 4776 c1 -19 2 -19 6 -2 4 15 7 16 14 5 11 -19 89 -20 89 -2 0
17 37 17 43 1 2 -8 3 -7 3 2 -1 12 -17 15 -79 16 -72 0 -77 -1 -76 -20z m49 4
c0 -5 -4 -10 -10 -10 -5 0 -10 5 -10 10 0 6 5 10 10 10 6 0 10 -4 10 -10z m40
0 c0 -5 -4 -10 -10 -10 -5 0 -10 5 -10 10 0 6 5 10 10 10 6 0 10 -4 10 -10z"/>
<path d="M7261 4778 c0 -16 2 -18 6 -8 3 8 11 18 17 22 7 5 4 8 -6 8 -12 0
-18 -7 -17 -22z"/>
<path d="M7304 4789 c-9 -15 4 -24 39 -25 18 -1 26 1 20 3 -7 3 -13 10 -13 17
0 14 -37 19 -46 5z m26 -9 c0 -5 -4 -10 -10 -10 -5 0 -10 5 -10 10 0 6 5 10
10 10 6 0 10 -4 10 -10z"/>
<path d="M7383 4785 c-3 -9 -3 -19 1 -22 3 -4 6 1 6 10 0 8 6 18 13 20 9 4 9
6 -1 6 -7 1 -15 -6 -19 -14z"/>
<path d="M7425 4790 c-8 -13 3 -30 18 -30 7 0 6 4 -3 10 -13 9 -13 11 0 20 9
6 10 10 3 10 -6 0 -15 -4 -18 -10z"/>
<path d="M7465 4790 c-8 -13 3 -30 18 -29 9 0 9 2 0 6 -7 2 -13 9 -13 14 0 6
5 7 10 4 6 -3 10 -1 10 4 0 14 -17 14 -25 1z"/>
<path d="M7501 4778 c0 -22 1 -22 9 -3 l9 20 1 -20 1 -20 8 20 8 20 5 -20 c5
-18 6 -18 7 3 1 17 -4 22 -24 22 -19 0 -25 -5 -24 -22z"/>
<path d="M7565 4790 c-8 -13 3 -30 18 -29 9 0 9 2 0 6 -7 2 -13 9 -13 14 0 6
5 7 10 4 6 -3 10 -1 10 4 0 14 -17 14 -25 1z"/>
<path d="M7601 4778 c0 -22 1 -22 8 -3 l8 20 5 -20 c5 -18 6 -18 7 3 1 13 -5
22 -14 22 -9 0 -15 -9 -14 -22z"/>
<path d="M1516 4692 c-3 -5 1 -9 9 -9 8 0 12 4 9 9 -3 4 -7 8 -9 8 -2 0 -6 -4
-9 -8z"/>
<path d="M1582 4675 c0 -16 2 -22 5 -12 2 9 2 23 0 30 -3 6 -5 -1 -5 -18z"/>
<path d="M1690 4678 c0 -19 -2 -20 -10 -8 -8 13 -10 12 -10 -2 0 -10 7 -18 15
-18 9 0 15 9 15 25 0 14 -2 25 -5 25 -3 0 -5 -10 -5 -22z"/>
<path d="M1352 4670 c0 -14 2 -19 5 -12 2 6 2 18 0 25 -3 6 -5 1 -5 -13z"/>
<path d="M1383 4683 c9 -2 23 -2 30 0 6 3 -1 5 -18 5 -16 0 -22 -2 -12 -5z"/>
<path d="M1606 4683 c-10 -10 -7 -33 4 -33 5 0 7 8 4 18 -5 14 -3 14 10 -2 13
-16 16 -17 16 -4 0 17 -24 31 -34 21z"/>
<path d="M1651 4664 c0 -11 3 -14 6 -6 3 7 2 16 -1 19 -3 4 -6 -2 -5 -13z"/>
<path d="M1741 4664 c0 -11 3 -14 6 -6 3 7 2 16 -1 19 -3 4 -6 -2 -5 -13z"/>
<path d="M1550 4660 c0 -5 5 -10 11 -10 5 0 7 5 4 10 -3 6 -8 10 -11 10 -2 0
-4 -4 -4 -10z"/>
<path d="M1518 4653 c7 -3 16 -2 19 1 4 3 -2 6 -13 5 -11 0 -14 -3 -6 -6z"/>
<path d="M4392 4653 l28 -4 3 -557 2 -557 3 563 2 562 -32 -1 c-31 -2 -31 -2
-6 -6z"/>
<path d="M6835 4520 c-3 -5 -1 -10 4 -10 6 0 11 5 11 10 0 6 -2 10 -4 10 -3 0
-8 -4 -11 -10z"/>
<path d="M6906 4502 c-3 -5 1 -9 9 -9 8 0 12 4 9 9 -3 4 -7 8 -9 8 -2 0 -6 -4
-9 -8z"/>
<path d="M4952 4008 l3 -483 2 477 3 477 28 4 c25 4 25 4 -5 6 l-33 1 2 -482z"/>
<path d="M6322 4465 c0 -16 2 -22 5 -12 2 9 2 23 0 30 -3 6 -5 -1 -5 -18z"/>
<path d="M6355 4479 c-5 -8 -4 -10 3 -5 8 5 12 -1 13 -16 1 -18 2 -19 6 -4 6
23 -12 43 -22 25z"/>
<path d="M6404 4475 c-8 -20 3 -48 16 -40 5 3 10 12 10 18 0 7 -4 6 -10 -3 -8
-12 -10 -10 -10 8 0 15 4 21 12 16 7 -4 8 -3 4 4 -10 16 -15 15 -22 -3z"/>
<path d="M6444 4476 c-8 -21 3 -49 16 -41 5 3 10 15 10 25 0 25 -18 36 -26 16z
m13 -28 c-3 -7 -5 -2 -5 12 0 14 2 19 5 13 2 -7 2 -19 0 -25z"/>
<path d="M6501 4457 c-8 -10 -7 -14 4 -14 8 0 15 6 15 14 0 7 -2 13 -4 13 -2
0 -9 -6 -15 -13z"/>
<path d="M6531 4454 c0 -11 3 -14 6 -6 3 7 2 16 -1 19 -3 4 -6 -2 -5 -13z"/>
<path d="M6551 4454 c0 -11 3 -14 6 -6 3 7 2 16 -1 19 -3 4 -6 -2 -5 -13z"/>
<path d="M1571 4439 c12 -8 12 -10 -1 -19 -8 -5 -10 -10 -4 -10 6 0 18 8 27
18 14 16 14 17 -10 19 -19 1 -22 -1 -12 -8z"/>
<path d="M1627 4434 c5 -13 3 -15 -7 -9 -9 5 -11 4 -6 -3 4 -7 11 -12 17 -12
12 0 12 27 -1 35 -6 4 -7 -1 -3 -11z"/>
<path d="M1651 4424 c0 -11 3 -14 6 -6 3 7 2 16 -1 19 -3 4 -6 -2 -5 -13z"/>
<path d="M1677 4423 c3 -7 6 -13 8 -13 2 0 5 6 8 13 3 8 -1 14 -8 14 -7 0 -11
-6 -8 -14z"/>
<path d="M6740 4413 c0 -21 3 -24 9 -14 5 8 7 20 4 28 -8 21 -13 15 -13 -14z"/>
<path d="M6770 4419 c-7 -11 -9 -23 -6 -27 3 -3 6 1 6 9 0 11 2 11 10 -1 8
-12 10 -9 10 13 0 32 -5 34 -20 6z"/>
<path d="M6862 4415 c0 -16 2 -22 5 -12 2 9 2 23 0 30 -3 6 -5 -1 -5 -18z"/>
<path d="M6921 4413 c2 -24 2 -25 6 -5 5 26 22 30 18 5 -1 -10 0 -12 2 -5 4
10 8 10 17 -3 11 -15 12 -14 12 4 0 11 -4 18 -7 15 -4 -2 -10 0 -14 6 -13 21
-35 10 -34 -17z"/>
<path d="M7231 4413 c2 -24 2 -25 6 -5 2 12 9 22 14 22 6 0 7 -5 3 -12 -4 -7
-3 -8 4 -4 7 4 12 0 13 -11 0 -11 3 -13 6 -5 6 16 -15 42 -33 42 -9 0 -13 -10
-13 -27z"/>
<path d="M6817 4409 c4 -13 8 -18 11 -10 2 7 -1 18 -6 23 -8 8 -9 4 -5 -13z"/>
<path d="M6842 4410 c0 -14 2 -19 5 -12 2 6 2 18 0 25 -3 6 -5 1 -5 -13z"/>
<path d="M7064 4418 c-4 -6 -3 -8 4 -4 6 3 18 -1 26 -10 12 -11 16 -12 16 -2
0 11 2 11 9 0 7 -11 9 -11 14 1 4 10 0 14 -11 12 -9 -1 -25 2 -34 6 -11 6 -19
5 -24 -3z"/>
<path d="M7316 4413 c3 -10 14 -20 26 -20 11 -1 19 -1 17 0 -2 1 -14 10 -26
21 -21 17 -21 17 -17 -1z"/>
<path d="M7356 4418 c3 -4 11 -5 19 -1 21 7 19 12 -4 10 -11 0 -18 -5 -15 -9z"/>
<path d="M7453 4415 c-3 -9 -3 -19 1 -22 3 -4 6 1 6 11 0 10 5 14 12 10 7 -4
8 -3 4 4 -10 16 -15 15 -23 -3z"/>
<path d="M6881 4404 c0 -11 3 -14 6 -6 3 7 2 16 -1 19 -3 4 -6 -2 -5 -13z"/>
<path d="M7007 4403 c3 -7 6 -13 8 -13 2 0 5 6 8 13 3 8 -1 14 -8 14 -7 0 -11
-6 -8 -14z"/>
<path d="M7164 4409 c-3 -6 -3 -13 0 -16 3 -4 6 -1 6 7 0 10 3 10 15 0 9 -7
15 -8 15 -2 0 14 -28 23 -36 11z"/>
<path d="M7403 4407 c0 -7 9 -14 20 -14 11 -1 18 -1 16 0 -2 2 -11 8 -20 15
-12 9 -16 9 -16 -1z"/>
<path d="M4070 3950 l0 -420 35 0 35 0 0 420 0 420 -35 0 -35 0 0 -420z"/>
<path d="M5240 3950 l0 -420 35 0 35 0 0 420 0 420 -35 0 -35 0 0 -420z"/>
<path d="M5820 3950 l0 -420 35 0 35 0 0 420 0 420 -35 0 -35 0 0 -420z"/>
<path d="M1536 4185 c-9 -26 -7 -32 5 -12 6 10 9 21 6 23 -2 3 -7 -2 -11 -11z"/>
<path d="M1603 4175 c0 -8 4 -15 9 -15 4 0 8 4 8 9 0 6 -4 12 -8 15 -5 3 -9
-1 -9 -9z"/>
<path d="M1633 4175 c0 -8 4 -12 9 -9 5 3 6 10 3 15 -9 13 -12 11 -12 -6z"/>
<path d="M1681 4174 c0 -11 3 -14 6 -6 3 7 2 16 -1 19 -3 4 -6 -2 -5 -13z"/>
<path d="M1720 4186 c0 -2 8 -10 18 -17 15 -13 16 -12 3 4 -13 16 -21 21 -21
13z"/>
<path d="M6945 4131 c2 -19 18 -17 21 2 1 8 -4 14 -11 14 -7 0 -12 -7 -10 -16z"/>
<path d="M6890 4131 c0 -6 4 -13 10 -16 6 -3 7 1 4 9 -7 18 -14 21 -14 7z"/>
<path d="M6736 4118 c3 -5 10 -6 15 -3 13 9 11 12 -6 12 -8 0 -12 -4 -9 -9z"/>
<path d="M6343 4090 c2 -30 22 -34 23 -5 l1 20 -5 -20 c-5 -18 -6 -18 -13 5
l-8 25 2 -25z"/>
<path d="M6394 4102 c-18 -13 -11 -38 10 -39 12 -1 15 1 9 4 -14 5 -18 33 -5
33 4 0 13 -9 20 -20 17 -28 32 -25 32 8 0 20 -3 23 -9 12 -6 -8 -7 -18 -4 -24
4 -5 1 -6 -6 -2 -7 5 -10 13 -8 20 5 13 -23 19 -39 8z"/>
<path d="M6473 4090 c2 -30 22 -34 23 -5 l1 20 -5 -20 c-5 -18 -6 -18 -13 5
l-8 25 2 -25z"/>
<path d="M6535 4090 c3 -5 8 -10 11 -10 2 0 4 5 4 10 0 6 -5 10 -11 10 -5 0
-7 -4 -4 -10z"/>
<path d="M6561 4078 c0 -22 1 -22 8 -3 l8 20 5 -20 c5 -18 6 -18 7 -1 1 12 6
16 17 12 8 -3 12 -2 9 4 -3 6 -17 10 -31 10 -18 0 -24 -5 -23 -22z"/>
<path d="M4660 3810 l0 -280 35 0 35 0 0 280 0 280 -35 0 -35 0 0 -280z"/>
<path d="M6527 4069 c7 -7 15 -10 18 -7 3 3 -2 9 -12 12 -14 6 -15 5 -6 -5z"/>
<path d="M7001 4038 c-1 -21 4 -28 17 -28 11 0 13 3 6 8 -7 4 -14 16 -17 27
-4 15 -5 14 -6 -7z"/>
<path d="M7342 4035 c0 -16 2 -22 5 -12 2 9 2 23 0 30 -3 6 -5 -1 -5 -18z"/>
<path d="M6775 4040 c-4 -6 -11 -7 -17 -4 -7 5 -8 2 -3 -6 6 -10 4 -12 -11 -6
-10 4 -15 4 -11 -1 5 -4 22 -8 39 -9 21 -1 26 1 17 7 -12 8 -12 11 1 19 9 6
10 10 3 10 -6 0 -15 -5 -18 -10z"/>
<path d="M6812 4030 c0 -14 2 -19 5 -12 2 6 2 18 0 25 -3 6 -5 1 -5 -13z"/>
<path d="M6830 4036 c0 -8 4 -17 9 -20 5 -4 7 3 4 14 -6 23 -13 26 -13 6z"/>
<path d="M6876 4042 c6 -4 14 -14 17 -22 4 -10 6 -8 6 8 1 15 -5 22 -16 22
-11 0 -14 -3 -7 -8z"/>
<path d="M6945 4040 c-8 -13 3 -30 18 -29 9 0 9 2 0 6 -7 2 -13 9 -13 14 0 4
7 5 17 2 11 -4 14 -3 9 5 -9 15 -23 15 -31 2z"/>
<path d="M7044 4030 c0 -9 5 -17 11 -17 6 0 11 8 11 17 0 9 -5 17 -11 17 -6 0
-11 -8 -11 -17z"/>
<path d="M7090 4041 c13 -10 13 -12 0 -22 -13 -9 -13 -10 0 -6 8 2 15 10 15
17 0 7 -7 15 -15 17 -13 4 -13 3 0 -6z"/>
<path d="M7120 4030 c0 -11 4 -20 10 -20 5 0 6 8 3 18 -6 15 -5 16 13 2 18
-14 18 -14 5 3 -18 23 -31 22 -31 -3z"/>
<path d="M7182 4030 c0 -14 2 -19 5 -12 2 6 2 18 0 25 -3 6 -5 1 -5 -13z"/>
<path d="M7200 4033 c0 -15 2 -15 9 -4 7 11 10 10 14 -5 4 -16 5 -16 6 4 1 13
-5 22 -14 22 -8 0 -15 -8 -15 -17z"/>
<path d="M7242 4030 c0 -14 2 -19 5 -12 2 6 2 18 0 25 -3 6 -5 1 -5 -13z"/>
<path d="M7263 4036 c1 -11 9 -21 17 -23 10 -3 11 -2 4 4 -6 4 -14 15 -17 23
-5 11 -6 9 -4 -4z"/>
<path d="M7300 4033 c0 -15 2 -15 9 -4 7 11 10 10 14 -5 4 -16 5 -16 6 4 1 13
-5 22 -14 22 -8 0 -15 -8 -15 -17z"/>
<path d="M1521 3943 c-7 -8 -11 -16 -8 -19 2 -2 10 2 17 11 17 20 9 27 -9 8z"/>
<path d="M1582 3936 c7 -8 15 -12 17 -11 5 6 -10 25 -20 25 -5 0 -4 -6 3 -14z"/>
<path d="M1631 3934 c0 -11 3 -14 6 -6 3 7 2 16 -1 19 -3 4 -6 -2 -5 -13z"/>
<path d="M1661 3934 c0 -11 3 -14 6 -6 3 7 2 16 -1 19 -3 4 -6 -2 -5 -13z"/>
<path d="M5594 3710 c0 -102 2 -143 3 -92 2 50 2 134 0 185 -1 50 -3 9 -3 -93z"/>
<path d="M1366 3717 c-16 -12 -16 -13 3 -13 11 0 17 5 14 10 -4 5 1 7 11 3 10
-4 15 -3 11 3 -8 13 -18 13 -39 -3z"/>
<path d="M1510 3711 c0 -6 5 -13 10 -16 6 -4 7 -11 4 -17 -4 -7 -2 -8 5 -4 9
6 9 11 1 21 -8 10 -7 14 2 18 8 4 7 6 -4 6 -10 1 -18 -3 -18 -8z"/>
<path d="M1555 3700 c3 -5 8 -10 11 -10 2 0 4 5 4 10 0 6 -5 10 -11 10 -5 0
-7 -4 -4 -10z"/>
<path d="M1581 3694 c0 -11 3 -14 6 -6 3 7 2 16 -1 19 -3 4 -6 -2 -5 -13z"/>
<path d="M1601 3694 c0 -11 3 -14 6 -6 3 7 2 16 -1 19 -3 4 -6 -2 -5 -13z"/>
<path d="M1641 3691 c0 -12 2 -13 6 -2 3 8 8 9 12 3 4 -7 12 -6 23 2 15 11 14
13 -12 13 -21 0 -30 -5 -29 -16z"/>
<path d="M1685 3670 c-3 -5 -1 -10 4 -10 6 0 11 5 11 10 0 6 -2 10 -4 10 -3 0
-8 -4 -11 -10z"/>
<path d="M6211 3640 c0 -33 1 -34 10 -11 6 16 6 28 -1 35 -7 7 -10 -1 -9 -24z"/>
<path d="M6254 3656 c-3 -8 -1 -23 5 -33 9 -15 10 -13 11 15 0 34 -7 42 -16
18z"/>
<path d="M6289 3644 c-10 -12 -9 -18 3 -30 12 -12 17 -13 23 -3 5 8 4 10 -3 5
-8 -5 -12 1 -12 16 0 18 2 20 10 8 6 -9 10 -10 10 -3 0 20 -17 24 -31 7z"/>
<path d="M6340 3650 c-20 -12 -5 -24 16 -12 9 5 12 12 7 15 -5 3 -15 2 -23 -3z"/>
<path d="M6384 3649 c-4 -7 -2 -15 4 -17 7 -2 12 -8 12 -13 0 -6 -5 -7 -12 -3
-7 4 -8 3 -4 -5 11 -16 26 -3 23 19 -4 26 -13 34 -23 19z"/>
<path d="M6436 3653 c-3 -3 -1 -12 6 -20 8 -11 7 -12 -6 -7 -9 3 -16 1 -16 -5
0 -6 9 -11 20 -11 13 0 20 7 20 19 0 21 -13 34 -24 24z"/>
<path d="M6529 3644 c-10 -12 -9 -18 3 -30 11 -11 18 -13 23 -5 3 6 3 10 -2 9
-9 -3 -13 5 -13 25 0 8 4 7 10 -3 6 -9 10 -10 10 -3 0 20 -17 24 -31 7z"/>
<path d="M6574 3649 c-9 -16 2 -22 21 -11 15 8 16 10 1 15 -8 3 -18 2 -22 -4z"/>
<path d="M6470 3630 c0 -11 4 -20 8 -20 4 0 8 9 8 20 0 11 -4 20 -8 20 -4 0
-8 -9 -8 -20z"/>
<path d="M6500 3626 c0 -15 -7 -26 -17 -29 -14 -4 -12 -5 5 -6 18 -1 22 4 22
29 0 17 -2 30 -5 30 -3 0 -5 -11 -5 -24z"/>
<path d="M7626 3635 c-9 -26 -7 -32 5 -12 6 10 9 21 6 23 -2 3 -7 -2 -11 -11z"/>
<path d="M6230 3626 c0 -9 5 -16 10 -16 6 0 10 4 10 9 0 6 -4 13 -10 16 -5 3
-10 -1 -10 -9z"/>
<path d="M6342 3621 c-11 -7 -11 -9 1 -14 16 -6 27 0 27 15 0 10 -11 10 -28
-1z"/>
<path d="M6590 3619 c0 -5 -5 -7 -12 -3 -7 4 -8 3 -4 -4 4 -6 13 -9 21 -5 17
6 20 23 5 23 -5 0 -10 -5 -10 -11z"/>
<path d="M2581 3558 c-11 -17 -10 -22 1 -29 21 -14 28 -10 28 15 0 33 -13 39
-29 14z"/>
<path d="M2625 3570 c-8 -13 4 -32 16 -25 5 4 9 -1 9 -9 0 -10 -6 -13 -17 -9
-15 5 -16 3 -5 -8 19 -21 41 5 25 31 -10 14 -10 20 0 23 7 3 5 6 -5 6 -9 1
-20 -3 -23 -9z"/>
<path d="M2716 3572 c-4 -6 -4 -17 0 -24 4 -6 3 -8 -4 -4 -6 3 -13 2 -17 -4
-3 -5 0 -10 9 -10 8 0 16 -5 18 -12 8 -22 15 16 8 42 -4 17 -8 21 -14 12z"/>
<path d="M2758 3574 c-8 -7 3 -54 13 -54 12 0 12 47 0 54 -4 3 -10 3 -13 0z"/>
<path d="M2816 3572 c-4 -6 -4 -17 0 -24 4 -6 3 -8 -4 -4 -6 3 -13 2 -17 -4
-3 -5 0 -10 9 -10 8 0 16 -5 18 -12 8 -22 15 16 8 42 -4 17 -8 21 -14 12z"/>
<path d="M3232 3560 c-10 -17 -10 -23 2 -35 19 -19 27 -6 18 28 -7 26 -7 27
-20 7z"/>
<path d="M3274 3566 c-9 -23 0 -51 16 -51 10 0 15 10 15 29 0 32 -21 47 -31
22z m26 -21 c0 -14 -4 -25 -10 -25 -5 0 -10 11 -10 25 0 14 5 25 10 25 6 0 10
-11 10 -25z"/>
<path d="M3344 3568 c-5 -8 -2 -9 9 -5 19 7 24 -17 7 -28 -18 -11 -11 -25 13
-24 20 0 20 1 3 8 -14 5 -16 10 -8 15 17 10 15 46 -2 46 -8 0 -18 -5 -22 -12z"/>
<path d="M3403 3573 c20 -5 20 -4 7 -37 -13 -35 -4 -33 15 4 20 39 19 40 -12
39 -17 -1 -21 -3 -10 -6z"/>
<path d="M3454 3566 c-9 -23 0 -51 16 -51 10 0 15 10 15 29 0 32 -21 47 -31
22z m26 -21 c0 -8 -4 -17 -10 -20 -6 -4 -10 5 -10 20 0 15 4 24 10 20 6 -3 10
-12 10 -20z"/>
<path d="M6278 3483 c-19 -5 -25 -23 -8 -23 15 0 12 -16 -6 -34 -13 -13 -13
-17 -2 -21 8 -3 15 -17 16 -32 3 -33 12 -44 12 -14 0 13 9 25 24 31 19 7 23
14 20 39 -3 22 1 31 10 31 10 0 14 -10 11 -35 -3 -31 0 -35 21 -35 21 0 24 -4
24 -41 0 -24 4 -38 10 -34 15 9 12 107 -4 127 -14 19 -77 49 -98 47 -7 -1 -21
-3 -30 -6z"/>
<path d="M1354 3456 c-11 -28 1 -51 26 -53 24 -1 24 -1 1 4 -19 4 -22 10 -19
34 5 31 1 38 -8 15z"/>
<path d="M6494 3445 c-7 -18 3 -35 22 -35 8 0 14 10 14 25 0 27 -27 35 -36 10z
m26 -10 c0 -8 -4 -15 -8 -15 -5 0 -9 7 -9 15 0 8 4 15 9 15 4 0 8 -7 8 -15z"/>
<path d="M6581 3438 c-1 -21 4 -28 17 -28 11 0 13 3 6 8 -7 4 -14 16 -17 27
-4 15 -5 14 -6 -7z"/>
<path d="M6622 3435 c0 -16 2 -22 5 -12 2 9 2 23 0 30 -3 6 -5 -1 -5 -18z"/>
<path d="M6642 3435 c0 -16 2 -22 5 -12 2 9 2 23 0 30 -3 6 -5 -1 -5 -18z"/>
<path d="M6711 3433 c0 -16 3 -22 6 -15 3 8 9 10 16 3 9 -6 12 -2 13 15 1 17
-3 24 -17 24 -14 0 -19 -7 -18 -27z"/>
<path d="M6862 3435 c0 -16 2 -22 5 -12 2 9 2 23 0 30 -3 6 -5 -1 -5 -18z"/>
<path d="M1541 3434 c0 -11 3 -14 6 -6 3 7 2 16 -1 19 -3 4 -6 -2 -5 -13z"/>
<path d="M1561 3434 c0 -11 3 -14 6 -6 3 7 2 16 -1 19 -3 4 -6 -2 -5 -13z"/>
<path d="M1598 3427 c-3 -19 -2 -25 4 -19 6 6 8 18 6 28 -3 14 -5 12 -10 -9z"/>
<path d="M1631 3434 c0 -11 3 -14 6 -6 3 7 2 16 -1 19 -3 4 -6 -2 -5 -13z"/>
<path d="M1651 3434 c0 -11 3 -14 6 -6 3 7 2 16 -1 19 -3 4 -6 -2 -5 -13z"/>
<path d="M6540 3430 c0 -11 2 -20 4 -20 2 0 6 9 9 20 3 11 1 20 -4 20 -5 0 -9
-9 -9 -20z"/>
<path d="M6670 3443 c5 -2 10 -9 10 -14 0 -6 -4 -7 -10 -4 -5 3 -10 1 -10 -4
0 -6 7 -11 16 -11 18 0 15 32 -4 36 -7 1 -8 0 -2 -3z"/>
<path d="M6770 3443 c5 -2 10 -9 10 -14 0 -6 -4 -7 -10 -4 -5 3 -10 1 -10 -4
0 -6 7 -11 16 -11 18 0 15 32 -4 36 -7 1 -8 0 -2 -3z"/>
<path d="M6801 3428 c0 -22 1 -22 9 -3 l9 20 1 -20 1 -20 8 20 8 20 5 -20 c5
-18 6 -18 7 3 1 17 -4 22 -24 22 -19 0 -25 -5 -24 -22z"/>
<path d="M6881 3426 c0 -20 1 -21 9 -1 7 17 9 17 9 3 1 -11 8 -18 19 -17 10 0
12 3 5 6 -7 2 -13 9 -13 14 0 6 5 7 10 4 6 -3 10 -2 10 3 0 5 -11 10 -25 10
-19 0 -25 -6 -24 -22z"/>
<path d="M6943 3430 c-1 -13 4 -20 15 -19 11 0 13 2 4 6 -10 4 -10 8 -1 19 9
11 8 14 -3 14 -7 0 -14 -9 -15 -20z"/>
<path d="M1388 3433 c6 -2 18 -2 25 0 6 3 1 5 -13 5 -14 0 -19 -2 -12 -5z"/>
<path d="M2572 3420 c0 -14 2 -19 5 -12 2 6 2 18 0 25 -3 6 -5 1 -5 -13z"/>
<path d="M2635 3419 c-4 -6 -5 -12 -2 -15 2 -3 7 2 10 11 7 17 1 20 -8 4z"/>
<path d="M2685 3421 c-3 -5 -2 -12 3 -15 5 -3 9 1 9 9 0 17 -3 19 -12 6z"/>
<path d="M2776 3413 c-6 -14 -5 -15 5 -6 7 7 10 15 7 18 -3 3 -9 -2 -12 -12z"/>
<path d="M6210 3400 c-8 -27 -7 -49 6 -76 18 -38 59 -63 75 -47 6 6 17 10 23
9 6 -2 8 -1 3 1 -4 3 -4 10 -1 15 4 7 2 8 -4 4 -7 -4 -12 -2 -12 4 0 6 -4 8
-10 5 -5 -3 -15 14 -21 39 -10 39 -14 44 -29 36 -13 -7 -20 -6 -23 3 -3 6 -6
10 -7 7z"/>
<path d="M6345 3280 c3 -5 10 -10 16 -10 5 0 9 5 9 10 0 6 -7 10 -16 10 -8 0
-12 -4 -9 -10z"/>
<path d="M2663 3075 c0 -22 2 -30 4 -17 2 12 2 30 0 40 -3 9 -5 -1 -4 -23z"/>
<path d="M2480 3070 c0 -25 4 -30 23 -29 16 1 18 2 5 6 -10 2 -18 8 -18 13 0
5 8 11 18 13 14 4 14 5 -3 7 l-20 1 20 9 c19 8 19 9 -2 9 -19 1 -23 -4 -23
-29z"/>
<path d="M3915 3091 c-3 -7 0 -8 9 -5 11 4 16 0 16 -11 0 -11 -5 -15 -15 -11
-8 3 -15 1 -15 -5 0 -6 8 -9 18 -7 9 2 17 12 17 22 0 22 -20 33 -30 17z"/>
<path d="M2539 3088 c-9 -42 -8 -48 12 -48 15 0 20 5 17 22 -2 17 -26 39 -29
26z"/>
<path d="M2580 3065 c0 -14 2 -25 4 -25 2 0 6 11 8 25 3 14 1 25 -3 25 -5 0
-9 -11 -9 -25z"/>
<path d="M2611 3063 c1 -23 2 -24 6 -5 2 12 8 22 13 22 5 0 11 -10 13 -22 5
-20 5 -20 4 2 -1 15 -9 26 -19 28 -14 3 -18 -3 -17 -25z"/>
<path d="M2681 3063 l0 -28 11 25 11 25 7 -25 8 -25 1 28 c1 21 -4 27 -19 27
-15 0 -20 -6 -19 -27z"/>
<path d="M2733 3074 c-4 -10 1 -22 11 -29 13 -10 14 -14 4 -18 -8 -4 -7 -6 5
-6 13 -1 17 7 17 34 0 38 -25 50 -37 19z m23 -21 c-10 -10 -19 5 -10 18 6 11
8 11 12 0 2 -7 1 -15 -2 -18z"/>
<path d="M2785 3080 c-3 -5 2 -13 11 -17 16 -6 16 -7 -2 -14 -17 -7 -17 -8 3
-8 18 -1 22 4 20 21 -4 24 -22 35 -32 18z"/>
<path d="M3611 3074 c0 -11 3 -14 6 -6 3 7 2 16 -1 19 -3 4 -6 -2 -5 -13z"/>
<path d="M4000 3074 c0 -8 5 -12 10 -9 6 4 8 11 5 16 -9 14 -15 11 -15 -7z"/>
<path d="M6241 3064 c-27 -22 -31 -32 -31 -74 0 -70 14 -97 20 -40 3 30 10 46
21 48 13 2 16 -6 15 -40 -1 -34 3 -43 18 -46 11 -3 16 0 11 7 -3 6 -11 9 -16
5 -7 -4 -9 11 -6 42 2 26 9 50 15 52 7 2 10 -3 6 -12 -8 -20 25 -34 36 -16 16
26 38 1 47 -52 l9 -53 22 35 c33 52 29 95 -12 136 -45 45 -108 48 -155 8z m46
-21 c-3 -10 -5 -4 -5 12 0 17 2 24 5 18 2 -7 2 -21 0 -30z m36 -8 c-3 -45 -18
-48 -18 -5 0 23 4 39 10 36 5 -2 9 -16 8 -31z m87 -75 c0 -5 -5 -10 -11 -10
-5 0 -7 5 -4 10 3 6 8 10 11 10 2 0 4 -4 4 -10z"/>
<path d="M3770 3071 c0 -6 4 -13 10 -16 6 -3 7 1 4 9 -7 18 -14 21 -14 7z"/>
<path d="M4061 3061 c-1 -19 1 -21 14 -11 8 6 20 8 27 4 9 -6 9 -3 -1 10 -10
12 -16 14 -21 5 -6 -8 -9 -8 -13 2 -3 8 -6 3 -6 -10z"/>
<path d="M4163 3065 c0 -8 4 -12 9 -9 5 3 6 10 3 15 -9 13 -12 11 -12 -6z"/>
<path d="M6497 3064 c-16 -16 -7 -44 14 -44 15 0 20 5 17 22 -3 22 -19 33 -31
22z m23 -19 c0 -8 -4 -15 -8 -15 -5 0 -9 7 -9 15 0 8 4 15 9 15 4 0 8 -7 8
-15z"/>
<path d="M6581 3048 c-1 -21 4 -28 17 -28 11 0 13 3 6 8 -7 4 -14 16 -17 27
-4 15 -5 14 -6 -7z"/>
<path d="M6642 3045 c0 -16 2 -22 5 -12 2 9 2 23 0 30 -3 6 -5 -1 -5 -18z"/>
<path d="M6711 3043 c0 -15 3 -22 6 -15 3 9 9 10 18 2 9 -8 12 -5 11 12 -1 13
-8 24 -18 26 -14 3 -18 -3 -17 -25z"/>
<path d="M6540 3040 c0 -11 2 -20 4 -20 2 0 6 9 9 20 3 11 1 20 -4 20 -5 0 -9
-9 -9 -20z"/>
<path d="M6670 3053 c5 -2 10 -9 10 -14 0 -6 -4 -7 -10 -4 -5 3 -10 1 -10 -4
0 -6 7 -11 16 -11 18 0 15 32 -4 36 -7 1 -8 0 -2 -3z"/>
<path d="M6770 3053 c5 -2 10 -9 10 -14 0 -6 -4 -7 -10 -4 -5 3 -10 1 -10 -4
0 -6 7 -11 16 -11 18 0 15 32 -4 36 -7 1 -8 0 -2 -3z"/>
<path d="M6800 3049 c0 -5 5 -7 10 -4 6 3 10 -2 11 -12 0 -16 1 -16 8 2 l8 20
6 -20 c5 -18 6 -18 4 -1 -2 20 -47 35 -47 15z"/>
<path d="M6881 3037 c0 -21 1 -21 9 -2 7 17 9 17 9 3 1 -10 8 -18 17 -18 24 0
12 33 -13 36 -18 3 -23 -1 -22 -19z"/>
<path d="M6944 3040 c0 -11 5 -20 11 -20 6 0 11 9 11 20 0 11 -5 20 -11 20 -6
0 -11 -9 -11 -20z"/>
<path d="M6621 3034 c0 -11 3 -14 6 -6 3 7 2 16 -1 19 -3 4 -6 -2 -5 -13z"/>
<path d="M6861 3034 c0 -11 3 -14 6 -6 3 7 2 16 -1 19 -3 4 -6 -2 -5 -13z"/>
<path d="M6347 2929 c-4 -13 -10 -18 -18 -13 -8 4 -10 3 -5 -4 10 -16 36 -3
36 19 0 25 -6 24 -13 -2z"/>
<path d="M4958 2853 c7 -3 16 -2 19 1 4 3 -2 6 -13 5 -11 0 -14 -3 -6 -6z"/>
<path d="M5306 2851 c-4 -5 3 -7 14 -4 26 7 25 -7 -1 -41 l-20 -26 33 1 c29 1
30 2 9 8 -21 6 -22 8 -7 20 23 19 21 51 -3 51 -11 0 -22 -4 -25 -9z"/>
<path d="M5386 2838 c-22 -31 -20 -45 6 -51 27 -8 36 5 30 43 -5 36 -15 38
-36 8z m14 -18 c0 -5 -5 -10 -11 -10 -5 0 -7 5 -4 10 3 6 8 10 11 10 2 0 4 -4
4 -10z"/>
<path d="M5467 2828 c-6 -37 11 -62 36 -53 11 5 15 17 13 43 -1 29 -6 38 -23
40 -16 2 -22 -3 -26 -30z m33 12 c0 -5 -4 -10 -10 -10 -5 0 -10 5 -10 10 0 6
5 10 10 10 6 0 10 -4 10 -10z m10 -40 c0 -5 -7 -10 -15 -10 -8 0 -15 5 -15 10
0 6 7 10 15 10 8 0 15 -4 15 -10z"/>
<path d="M5566 2835 c4 -15 2 -25 -5 -25 -6 0 -8 8 -5 18 5 14 3 14 -10 -2
-21 -26 -20 -36 4 -36 11 0 20 -6 20 -12 1 -9 4 -8 9 2 10 18 2 80 -10 80 -5
0 -7 -11 -3 -25z"/>
<path d="M5607 2854 c-13 -13 -7 -61 8 -74 23 -19 47 6 43 44 -2 22 -9 32 -23
34 -12 2 -24 0 -28 -4z m33 -34 c0 -16 -4 -30 -10 -30 -5 0 -10 14 -10 30 0
17 5 30 10 30 6 0 10 -13 10 -30z"/>
<path d="M3705 2828 c-15 -12 -40 -41 -55 -65 -15 -23 -31 -39 -35 -35 -5 4
-5 1 -1 -5 10 -18 10 -18 39 26 44 66 77 91 121 91 33 0 46 -7 80 -43 24 -25
55 -75 75 -120 19 -42 37 -77 41 -77 16 0 -80 180 -115 214 -30 30 -43 36 -79
36 -29 0 -52 -7 -71 -22z"/>
<path d="M4915 2840 c-3 -6 1 -7 9 -4 18 7 21 14 7 14 -6 0 -13 -4 -16 -10z"/>
<path d="M3550 2836 c0 -2 8 -10 18 -17 15 -13 16 -12 3 4 -13 16 -21 21 -21
13z"/>
<path d="M4245 2820 c10 -11 20 -20 23 -20 3 0 -3 9 -13 20 -10 11 -20 20 -23
20 -3 0 3 -9 13 -20z"/>
<path d="M4849 2773 c-13 -16 -12 -17 4 -4 9 7 17 15 17 17 0 8 -8 3 -21 -13z"/>
<path d="M5436 2775 c-3 -8 -1 -15 4 -15 6 0 10 7 10 15 0 8 -2 15 -4 15 -2 0
-6 -7 -10 -15z"/>
<path d="M4069 2763 c-13 -16 -12 -17 4 -4 9 7 17 15 17 17 0 8 -8 3 -21 -13z"/>
<path d="M5294 2696 c-8 -22 3 -49 19 -43 6 2 12 14 12 27 0 27 -22 39 -31 16z
m26 -16 c0 -11 -4 -20 -10 -20 -5 0 -10 9 -10 20 0 11 5 20 10 20 6 0 10 -9
10 -20z"/>
<path d="M5340 2683 c0 -21 3 -24 9 -14 5 8 7 20 4 28 -8 21 -13 15 -13 -14z"/>
<path d="M5691 2687 c-1 -19 -5 -26 -13 -21 -7 5 -8 3 -3 -5 11 -19 27 3 22
30 -4 22 -4 21 -6 -4z"/>
<path d="M3587 2643 c-14 -32 -48 -114 -75 -183 -74 -187 -126 -285 -183 -342
-31 -31 -56 -48 -64 -44 -8 3 -15 1 -15 -5 0 -7 -18 -9 -52 -5 -116 12 -213
18 -208 13 4 -4 35 -8 70 -10 102 -7 174 -19 182 -31 5 -7 8 -4 8 7 0 9 7 17
15 17 24 0 106 82 143 143 32 52 215 488 208 494 -2 2 -15 -23 -29 -54z"/>
<path d="M5612 2675 c0 -16 2 -22 5 -12 2 9 2 23 0 30 -3 6 -5 -1 -5 -18z"/>
<path d="M5792 2680 c0 -14 2 -19 5 -12 2 6 2 18 0 25 -3 6 -5 1 -5 -13z"/>
<path d="M5391 2674 c0 -11 3 -14 6 -6 3 7 2 16 -1 19 -3 4 -6 -2 -5 -13z"/>
<path d="M5411 2674 c0 -11 3 -14 6 -6 3 7 2 16 -1 19 -3 4 -6 -2 -5 -13z"/>
<path d="M5452 2665 c0 -16 2 -22 5 -12 2 9 2 23 0 30 -3 6 -5 -1 -5 -18z"/>
<path d="M5491 2674 c0 -11 3 -14 6 -6 3 7 2 16 -1 19 -3 4 -6 -2 -5 -13z"/>
<path d="M5634 2672 c2 -21 21 -19 23 3 l3 20 -9 -20 c-6 -16 -9 -17 -13 -5
-3 8 -4 9 -4 2z"/>
<path d="M5710 2676 c0 -8 4 -17 9 -20 5 -4 7 3 4 14 -6 23 -13 26 -13 6z"/>
<path d="M5751 2674 c0 -11 3 -14 6 -6 3 7 2 16 -1 19 -3 4 -6 -2 -5 -13z"/>
<path d="M5771 2674 c0 -11 3 -14 6 -6 3 7 2 16 -1 19 -3 4 -6 -2 -5 -13z"/>
<path d="M5820 2675 c5 -7 6 -16 2 -21 -4 -5 -3 -5 2 -1 15 12 15 34 0 34 -9
0 -11 -4 -4 -12z"/>
<path d="M5590 2671 c0 -8 -7 -11 -17 -6 -15 5 -16 4 -5 -6 9 -10 15 -10 24
-1 6 6 9 15 5 19 -4 3 -7 1 -7 -6z"/>
<path d="M6494 2666 c-8 -22 3 -49 19 -43 6 2 12 14 12 27 0 27 -22 39 -31 16z
m23 -28 c-3 -7 -5 -2 -5 12 0 14 2 19 5 13 2 -7 2 -19 0 -25z"/>
<path d="M6583 2656 c1 -17 9 -31 17 -33 10 -3 11 -2 4 4 -7 4 -14 19 -17 33
-4 22 -5 21 -4 -4z"/>
<path d="M6642 2655 c0 -16 2 -22 5 -12 2 9 2 23 0 30 -3 6 -5 -1 -5 -18z"/>
<path d="M6710 2658 c0 -16 6 -24 19 -24 24 0 23 39 -1 44 -13 3 -18 -3 -18
-20z m30 2 c0 -5 -4 -10 -10 -10 -5 0 -10 5 -10 10 0 6 5 10 10 10 6 0 10 -4
10 -10z"/>
<path d="M5516 2658 c3 -5 10 -6 15 -3 13 9 11 12 -6 12 -8 0 -12 -4 -9 -9z"/>
<path d="M6292 2658 c-7 -7 -12 -22 -12 -34 0 -13 -4 -25 -9 -28 -15 -9 -20
-55 -5 -49 15 5 36 61 28 74 -3 5 0 17 5 26 6 10 11 14 12 8 1 -5 3 -25 5 -43
2 -19 8 -41 14 -50 8 -14 9 -13 10 8 0 33 -19 100 -28 100 -5 0 -13 -5 -20
-12z"/>
<path d="M6666 2663 c-3 -3 -6 -16 -5 -27 0 -12 3 -15 6 -8 2 6 9 10 14 6 5
-3 9 2 9 10 0 17 -14 29 -24 19z"/>
<path d="M6766 2663 c-11 -12 -6 -30 9 -30 8 0 15 6 15 13 0 15 -15 26 -24 17z"/>
<path d="M6803 2658 c-3 -7 -1 -8 5 -4 7 4 12 0 13 -11 0 -16 1 -16 8 2 l8 20
6 -20 c5 -18 6 -18 4 -1 -2 21 -33 31 -44 14z"/>
<path d="M6904 2656 c-4 -10 -1 -23 6 -29 10 -9 11 -9 6 0 -3 6 0 13 6 16 10
4 10 7 1 17 -10 11 -14 10 -19 -4z"/>
<path d="M6945 2649 c1 -10 4 -21 8 -24 4 -3 5 -2 2 2 -3 3 0 12 5 18 7 9 6
14 -3 18 -9 3 -13 -2 -12 -14z"/>
<path d="M6540 2645 c0 -8 2 -15 4 -15 2 0 6 7 10 15 3 8 1 15 -4 15 -6 0 -10
-7 -10 -15z"/>
<path d="M6621 2644 c0 -11 3 -14 6 -6 3 7 2 16 -1 19 -3 4 -6 -2 -5 -13z"/>
<path d="M6861 2644 c0 -11 3 -14 6 -6 3 7 2 16 -1 19 -3 4 -6 -2 -5 -13z"/>
<path d="M3972 2565 c6 -14 13 -24 14 -22 6 6 -9 47 -17 47 -5 0 -3 -11 3 -25z"/>
<path d="M5340 2539 c0 -6 -7 -9 -15 -6 -8 4 -17 2 -20 -3 -4 -6 5 -10 19 -10
16 0 26 6 26 15 0 8 -2 15 -5 15 -3 0 -5 -5 -5 -11z"/>
<path d="M3990 2525 c0 -22 77 -220 112 -287 89 -173 182 -194 339 -77 40 29
104 70 143 91 39 20 65 38 57 38 -8 0 -45 -18 -83 -40 -39 -22 -75 -37 -80
-33 -6 3 -8 1 -5 -5 7 -11 -63 -67 -120 -96 -43 -21 -111 -20 -146 2 -57 38
-115 141 -176 317 -30 85 -41 109 -41 90z"/>
<path d="M6272 2501 c4 -20 48 -27 59 -9 14 21 11 23 -26 24 -27 0 -35 -3 -33
-15z"/>
<path d="M3836 2335 c-9 -26 -7 -32 5 -12 6 10 9 21 6 23 -2 3 -7 -2 -11 -11z"/>
<path d="M4859 2329 c35 -5 76 -16 92 -25 16 -8 29 -12 29 -10 0 15 -67 37
-122 41 l-63 4 64 -10z"/>
<path d="M4710 2318 c-19 -5 -39 -14 -45 -20 -7 -8 -4 -9 10 -3 11 4 43 13 70
20 28 8 39 13 25 13 -14 0 -41 -4 -60 -10z"/>
<path d="M6494 2276 c-8 -22 3 -49 19 -43 6 2 12 14 12 27 0 27 -22 39 -31 16z
m23 -28 c-3 -7 -5 -2 -5 12 0 14 2 19 5 13 2 -7 2 -19 0 -25z"/>
<path d="M6641 2264 c-1 -26 3 -31 21 -30 26 1 39 36 14 36 -18 0 -22 -16 -6
-23 6 -3 5 -4 -2 -3 -7 1 -15 13 -19 27 -6 22 -7 21 -8 -7z"/>
<path d="M6717 2284 c-4 -4 -7 -19 -7 -33 0 -21 2 -23 10 -11 9 13 11 13 20 0
7 -11 9 -8 7 14 -2 29 -17 43 -30 30z m23 -14 c0 -5 -4 -10 -10 -10 -5 0 -10
5 -10 10 0 6 5 10 10 10 6 0 10 -4 10 -10z"/>
<path d="M6581 2258 c-1 -21 4 -28 17 -28 11 0 13 3 6 8 -7 4 -14 16 -17 27
-4 15 -5 14 -6 -7z"/>
<path d="M6315 2260 c-4 -6 -4 -14 -1 -17 3 -4 6 -1 6 5 0 7 5 12 11 12 6 0 9
-9 6 -20 -3 -13 -1 -18 5 -13 7 4 8 1 2 -8 -5 -8 -10 -25 -12 -39 -4 -28 -19
-50 -36 -50 -7 0 -7 3 -1 8 10 7 13 16 23 62 5 23 4 24 -12 11 -10 -8 -24 -28
-33 -44 -12 -24 -13 -34 -3 -53 7 -12 18 -20 26 -17 8 3 11 9 8 14 -3 5 0 9 5
9 6 0 11 -7 11 -15 0 -16 28 -20 45 -7 14 10 19 90 7 105 -6 7 -12 23 -14 37
-3 26 -31 39 -43 20z"/>
<path d="M6540 2250 c0 -11 2 -20 4 -20 2 0 6 9 9 20 3 11 1 20 -4 20 -5 0 -9
-9 -9 -20z"/>
<path d="M6622 2250 c0 -14 2 -19 5 -12 2 6 2 18 0 25 -3 6 -5 1 -5 -13z"/>
<path d="M6760 2250 c0 -11 7 -20 15 -20 8 0 15 9 15 20 0 11 -7 20 -15 20 -8
0 -15 -9 -15 -20z"/>
<path d="M6806 2262 c6 -4 14 -14 17 -22 4 -11 6 -10 7 5 l1 20 9 -20 c8 -19
9 -19 9 3 1 18 -4 22 -26 22 -16 0 -23 -4 -17 -8z"/>
<path d="M6862 2250 c0 -14 2 -19 5 -12 2 6 2 18 0 25 -3 6 -5 1 -5 -13z"/>
<path d="M6903 2256 c1 -11 9 -21 17 -23 10 -3 11 -2 4 4 -6 4 -14 15 -17 23
-5 11 -6 9 -4 -4z"/>
<path d="M6943 2250 c-1 -13 4 -20 15 -19 11 0 13 2 4 6 -10 4 -10 8 -1 19 9
11 8 14 -3 14 -7 0 -14 -9 -15 -20z"/>
<path d="M3786 2245 c-11 -8 -15 -15 -9 -15 6 0 16 7 23 15 16 19 11 19 -14 0z"/>
<path d="M2918 2045 c-60 -41 -130 -160 -127 -218 1 -14 4 -8 10 16 21 87 83
173 154 210 17 9 23 16 15 17 -9 0 -32 -11 -52 -25z"/>
<path d="M4540 2056 c0 -2 8 -10 18 -17 15 -13 16 -12 3 4 -13 16 -21 21 -21
13z"/>
<path d="M4586 2043 c-6 -14 -5 -15 5 -6 7 7 10 15 7 18 -3 3 -9 -2 -12 -12z"/>
<path d="M5304 2009 c-4 -8 0 -9 15 -4 22 7 30 -9 10 -21 -8 -5 -8 -9 1 -14 7
-4 9 -13 5 -19 -5 -9 -11 -9 -23 1 -13 11 -14 11 -10 -2 2 -8 13 -15 24 -15
15 0 20 8 22 43 3 36 0 42 -17 42 -11 0 -23 -5 -27 -11z"/>
<path d="M5398 1985 c-4 -38 11 -61 36 -52 10 4 14 18 13 44 -2 30 -7 39 -24
41 -17 3 -21 -3 -25 -33z m33 12 c-1 -12 -15 -9 -19 4 -3 6 1 10 8 8 6 -3 11
-8 11 -12z m7 -38 c-2 -6 -8 -10 -13 -10 -5 0 -11 4 -13 10 -2 6 4 11 13 11 9
0 15 -5 13 -11z"/>
<path d="M5479 1993 c-7 -16 -15 -31 -17 -35 -2 -5 6 -8 17 -8 12 0 21 -6 21
-12 1 -9 4 -8 9 2 10 17 3 80 -9 80 -4 0 -13 -12 -21 -27z m17 -19 c-4 -9 -9
-15 -11 -12 -3 3 -3 13 1 22 4 9 9 15 11 12 3 -3 3 -13 -1 -22z"/>
<path d="M5536 2005 c-17 -46 10 -89 40 -65 23 20 15 74 -12 78 -13 2 -24 -4
-28 -13z m34 -25 c0 -16 -4 -30 -10 -30 -5 0 -10 14 -10 30 0 17 5 30 10 30 6
0 10 -13 10 -30z"/>
<path d="M5371 1934 c0 -11 3 -14 6 -6 3 7 2 16 -1 19 -3 4 -6 -2 -5 -13z"/>
<path d="M3110 1931 c0 -6 4 -13 10 -16 6 -3 7 1 4 9 -7 18 -14 21 -14 7z"/>
<path d="M6292 1897 c-6 -6 -17 -30 -25 -52 -8 -22 -21 -54 -28 -72 -10 -25
-10 -34 0 -46 16 -20 78 -30 116 -19 37 10 44 46 19 94 -10 18 -19 43 -20 56
-5 45 -40 66 -62 39z m32 -23 c8 -21 8 -26 -2 -20 -4 2 -6 -12 -4 -32 3 -31 2
-35 -9 -24 -13 12 -22 70 -12 85 7 12 20 8 27 -9z m11 -143 c7 -13 -28 -23
-49 -15 -14 5 -15 9 -4 15 17 12 45 11 53 0z"/>
<path d="M6492 1868 c2 -13 10 -23 18 -23 8 0 16 10 18 23 3 17 -2 22 -18 22
-16 0 -21 -5 -18 -22z m28 -3 c0 -8 -4 -15 -8 -15 -5 0 -9 7 -9 15 0 8 4 15 9
15 4 0 8 -7 8 -15z"/>
<path d="M6581 1868 c-1 -21 4 -28 17 -28 11 0 13 3 6 8 -7 4 -14 16 -17 27
-4 15 -5 14 -6 -7z"/>
<path d="M6622 1865 c0 -16 2 -22 5 -12 2 9 2 23 0 30 -3 6 -5 -1 -5 -18z"/>
<path d="M6642 1865 c0 -16 2 -22 5 -12 2 9 2 23 0 30 -3 6 -5 -1 -5 -18z"/>
<path d="M6711 1863 c0 -16 3 -22 6 -15 3 8 9 10 16 3 9 -6 12 -2 13 15 1 17
-3 24 -17 24 -14 0 -19 -7 -18 -27z"/>
<path d="M6540 1860 c0 -11 2 -20 4 -20 2 0 6 9 9 20 3 11 1 20 -4 20 -5 0 -9
-9 -9 -20z"/>
<path d="M6670 1865 c9 -11 10 -16 3 -11 -7 4 -13 2 -13 -3 0 -6 7 -11 16 -11
19 0 15 31 -6 38 -13 5 -13 3 0 -13z"/>
<path d="M6770 1873 c5 -2 10 -9 10 -14 0 -6 -4 -7 -10 -4 -5 3 -10 1 -10 -4
0 -6 7 -11 16 -11 18 0 15 32 -4 36 -7 1 -8 0 -2 -3z"/>
<path d="M6806 1872 c6 -4 14 -14 17 -22 4 -11 6 -10 7 5 l1 20 9 -20 c8 -19
9 -19 9 3 1 18 -4 22 -26 22 -16 0 -23 -4 -17 -8z"/>
<path d="M6862 1860 c0 -14 2 -19 5 -12 2 6 2 18 0 25 -3 6 -5 1 -5 -13z"/>
<path d="M6882 1860 c0 -14 2 -19 5 -12 2 6 2 18 0 25 -3 6 -5 1 -5 -13z"/>
<path d="M6905 1870 c-8 -13 3 -30 18 -29 9 0 9 2 0 6 -7 2 -13 9 -13 14 0 6
5 7 10 4 6 -3 10 -1 10 4 0 14 -17 14 -25 1z"/>
<path d="M6943 1860 c-1 -13 4 -20 15 -19 11 0 13 2 4 6 -10 4 -10 8 -1 19 9
11 8 14 -3 14 -7 0 -14 -9 -15 -20z"/>
<path d="M5291 1843 c-2 -33 18 -38 43 -12 20 22 20 22 0 6 -27 -22 -32 -22
-37 6 -4 22 -4 22 -6 0z"/>
<path d="M5522 1835 c0 -16 2 -22 5 -12 2 9 2 23 0 30 -3 6 -5 -1 -5 -18z"/>
<path d="M5562 1835 c0 -16 2 -22 5 -12 2 9 2 23 0 30 -3 6 -5 -1 -5 -18z"/>
<path d="M5402 1830 c0 -14 2 -19 5 -12 2 6 2 18 0 25 -3 6 -5 1 -5 -13z"/>
<path d="M5421 1834 c0 -11 3 -14 6 -6 3 7 2 16 -1 19 -3 4 -6 -2 -5 -13z"/>
<path d="M5441 1826 c-1 -24 1 -27 14 -16 16 14 21 25 6 15 -5 -3 -12 3 -14
12 -3 11 -5 6 -6 -11z"/>
<path d="M5480 1836 c0 -8 4 -17 9 -20 5 -4 7 3 4 14 -6 23 -13 26 -13 6z"/>
<path d="M5541 1834 c0 -11 3 -14 6 -6 3 7 2 16 -1 19 -3 4 -6 -2 -5 -13z"/>
<path d="M5581 1834 c0 -11 3 -14 6 -6 3 7 2 16 -1 19 -3 4 -6 -2 -5 -13z"/>
<path d="M5621 1837 c-1 -11 -6 -15 -13 -11 -7 5 -8 3 -3 -5 10 -16 29 2 22
21 -4 8 -6 7 -6 -5z"/>
<path d="M5641 1834 c0 -11 3 -14 6 -6 3 7 2 16 -1 19 -3 4 -6 -2 -5 -13z"/>
<path d="M5662 1830 c0 -14 2 -19 5 -12 2 6 2 18 0 25 -3 6 -5 1 -5 -13z"/>
<path d="M5352 1824 c-7 -8 -8 -14 -3 -14 10 0 25 19 20 25 -2 1 -10 -3 -17
-11z"/>
<path d="M5295 1731 c-8 -13 19 -26 35 -16 5 3 10 1 10 -6 0 -7 -10 -9 -25 -6
-16 3 -24 0 -22 -7 2 -6 16 -12 31 -14 25 -3 27 -1 24 25 -2 20 -9 29 -25 31
-11 2 -24 -2 -28 -7z"/>
<path d="M2646 1350 c-20 -21 -15 -50 9 -50 11 0 15 10 15 35 0 40 1 40 -24
15z m14 -25 c0 -8 -4 -15 -10 -15 -5 0 -10 7 -10 15 0 8 5 15 10 15 6 0 10 -7
10 -15z"/>
<path d="M2973 1335 c0 -22 2 -30 4 -17 2 12 2 30 0 40 -3 9 -5 -1 -4 -23z"/>
<path d="M2500 1349 c0 -7 8 -18 18 -26 16 -14 16 -14 0 -9 -10 3 -18 1 -18
-4 0 -6 9 -10 20 -10 24 0 27 28 3 37 -15 6 -15 7 3 14 17 7 17 8 -3 8 -13 1
-23 -4 -23 -10z"/>
<path d="M2556 1351 c-4 -5 -2 -20 3 -33 9 -21 10 -21 10 10 1 32 -3 39 -13
23z"/>
<path d="M2780 1332 c0 -18 4 -32 8 -32 9 0 8 47 -1 57 -4 3 -7 -8 -7 -25z"/>
<path d="M2841 1337 c-6 -16 -11 -29 -11 -30 0 -1 11 -2 25 -2 28 0 32 12 11
41 -14 18 -15 18 -25 -9z"/>
<path d="M2936 1353 c-4 -4 -15 -8 -24 -8 -23 0 -22 -39 1 -43 9 -2 17 1 17 7
0 6 -7 8 -15 5 -9 -4 -15 0 -15 9 0 10 8 15 20 14 12 -1 20 -8 20 -19 0 -10 4
-18 8 -18 8 0 9 47 0 55 -2 3 -8 2 -12 -2z"/>
<path d="M3058 1354 c-8 -7 3 -54 12 -54 5 0 6 9 3 20 -3 11 0 20 6 20 10 0
15 -17 14 -49 -2 -23 15 3 21 34 5 24 4 26 -3 10 -5 -11 -10 -15 -10 -8 -1 13
-35 35 -43 27z"/>
<path d="M3840 1330 c0 -16 5 -30 11 -30 6 0 9 7 5 15 -3 8 -1 15 4 15 5 0 7
7 4 15 -10 25 -24 17 -24 -15z"/>
<path d="M3876 1338 c-3 -13 -2 -26 3 -31 5 -5 11 5 13 22 5 36 -7 42 -16 9z"/>
<path d="M3960 1332 c0 -17 4 -33 8 -36 9 -5 7 52 -2 61 -3 4 -6 -8 -6 -25z"/>
<path d="M4131 1328 c0 -18 3 -27 6 -20 2 6 9 12 14 12 6 0 7 -4 4 -10 -3 -5
-1 -10 5 -10 19 0 7 54 -12 58 -14 3 -18 -3 -17 -30z m29 18 c0 -3 -4 -8 -10
-11 -5 -3 -10 -1 -10 4 0 6 5 11 10 11 6 0 10 -2 10 -4z"/>
<path d="M4341 1353 c0 -7 -8 -13 -16 -13 -16 0 -21 -35 -7 -44 17 -10 33 12
29 40 -2 16 -5 23 -6 17z m-1 -33 c0 -5 -4 -10 -10 -10 -5 0 -10 5 -10 10 0 6
5 10 10 10 6 0 10 -4 10 -10z"/>
<path d="M6580 1328 c0 -24 3 -29 9 -19 7 11 13 12 23 3 11 -9 14 -6 13 16 0
20 -6 28 -22 30 -20 3 -23 -1 -23 -30z m40 18 c0 -11 -19 -15 -25 -6 -3 5 1
10 9 10 9 0 16 -2 16 -4z"/>
<path d="M6830 1332 c0 -18 4 -32 8 -32 9 0 8 47 -1 57 -4 3 -7 -8 -7 -25z"/>
<path d="M6890 1336 c-5 -15 -10 -28 -10 -29 0 -1 11 -2 25 -2 20 0 24 4 19
20 -11 35 -23 39 -34 11z"/>
<path d="M6986 1353 c-4 -4 -15 -8 -24 -8 -23 0 -22 -39 1 -43 9 -2 17 1 17 7
0 6 -7 8 -15 5 -9 -4 -15 0 -15 9 0 10 8 15 20 14 12 -1 20 -8 20 -19 0 -10 4
-18 8 -18 8 0 9 47 0 55 -2 3 -8 2 -12 -2z"/>
<path d="M7022 1330 c0 -19 2 -27 5 -17 2 9 2 25 0 35 -3 9 -5 1 -5 -18z"/>
<path d="M7108 1354 c-8 -7 3 -54 12 -54 5 0 6 9 3 20 -7 26 3 26 18 -1 9 -17
8 -23 -2 -30 -11 -7 -11 -9 -1 -9 7 0 17 12 22 26 12 31 12 57 0 29 -5 -11 -9
-15 -9 -8 -1 13 -35 35 -43 27z"/>
<path d="M2584 1325 c1 -11 9 -21 19 -23 13 -3 17 3 16 25 -1 23 -2 24 -6 6
-5 -27 -20 -30 -26 -5 -3 13 -4 12 -3 -3z"/>
<path d="M2684 1336 c-8 -20 3 -36 24 -35 14 0 13 2 -3 9 -18 8 -18 9 -2 9 10
1 17 6 15 13 -7 19 -27 21 -34 4z"/>
<path d="M2731 1323 c1 -23 2 -24 6 -5 2 12 8 22 13 22 5 0 11 -10 13 -22 5
-20 5 -20 4 2 -1 15 -9 26 -19 28 -14 3 -18 -3 -17 -25z"/>
<path d="M2991 1340 c0 -8 4 -22 9 -30 7 -12 11 -10 19 10 9 24 10 24 10 3 1
-28 21 -31 21 -4 0 25 -29 36 -37 14 -6 -15 -7 -14 -14 3 -5 13 -8 14 -8 4z"/>
<path d="M3910 1336 c-10 -13 -10 -19 0 -32 12 -14 15 -14 29 0 14 15 14 17 0
32 -14 14 -17 14 -29 0z m22 -28 c-9 -9 -12 -7 -12 12 0 19 3 21 12 12 9 -9 9
-15 0 -24z"/>
<path d="M4014 1335 c-11 -27 3 -47 24 -36 13 7 22 7 29 0 8 -8 13 -7 18 2 5
8 4 10 -3 5 -8 -5 -12 1 -11 16 0 13 3 17 6 11 2 -7 9 -13 15 -13 6 0 5 6 -2
15 -9 11 -17 12 -23 6 -7 -7 -16 -7 -29 0 -14 7 -20 6 -24 -6z m36 -15 c0 -5
-7 -10 -15 -10 -8 0 -15 5 -15 10 0 6 7 10 15 10 8 0 15 -4 15 -10z"/>
<path d="M4193 1343 c-17 -6 -16 -40 1 -46 17 -7 26 1 26 24 0 21 -10 28 -27
22z m17 -29 c0 -8 -4 -12 -10 -9 -5 3 -10 10 -10 16 0 5 5 9 10 9 6 0 10 -7
10 -16z"/>
<path d="M4240 1338 c-13 -8 -13 -9 1 -5 9 3 16 -1 16 -8 0 -7 -6 -11 -14 -8
-13 5 -18 -8 -7 -20 11 -11 34 5 34 23 0 24 -12 31 -30 18z"/>
<path d="M6340 1341 c0 -6 4 -13 10 -16 6 -3 7 1 4 9 -7 18 -14 21 -14 7z"/>
<path d="M6647 1343 c-14 -13 -7 -43 11 -43 14 0 15 2 2 10 -13 8 -13 10 2 10
9 0 20 -4 23 -10 3 -5 14 -10 23 -10 15 1 15 2 -1 11 -9 6 -15 15 -12 20 4 5
11 7 16 4 5 -4 9 -1 9 4 0 6 -7 11 -15 11 -8 0 -15 -5 -15 -12 0 -9 -3 -9 -12
0 -14 14 -22 15 -31 5z"/>
<path d="M6734 1336 c-8 -20 3 -36 24 -35 14 0 13 2 -3 9 -18 8 -18 9 -2 9 10
1 17 6 15 13 -7 19 -27 21 -34 4z"/>
<path d="M6781 1323 c1 -23 2 -24 6 -5 2 12 8 22 13 22 5 0 11 -10 13 -22 5
-20 5 -20 4 2 -1 15 -9 26 -19 28 -14 3 -18 -3 -17 -25z"/>
<path d="M7041 1340 c0 -8 4 -22 9 -30 7 -12 11 -10 19 10 9 24 10 24 10 3 1
-28 21 -31 21 -4 0 25 -29 36 -37 14 -6 -15 -7 -14 -14 3 -5 13 -8 14 -8 4z"/>
<path d="M7626 1335 c-9 -26 -7 -32 5 -12 6 10 9 21 6 23 -2 3 -7 -2 -11 -11z"/>
<path d="M3446 1327 c3 -10 9 -15 12 -12 3 3 0 11 -7 18 -10 9 -11 8 -5 -6z"/>
<path d="M3536 1327 c3 -10 9 -15 12 -12 3 3 0 11 -7 18 -10 9 -11 8 -5 -6z"/>
<path d="M3992 1320 c0 -14 2 -19 5 -12 2 6 2 18 0 25 -3 6 -5 1 -5 -13z"/>
<path d="M4280 1320 c0 -11 2 -20 4 -20 2 0 6 9 9 20 3 11 1 20 -4 20 -5 0 -9
-9 -9 -20z"/>
<path d="M3575 1320 c-3 -6 1 -7 9 -4 18 7 21 14 7 14 -6 0 -13 -4 -16 -10z"/>
<path d="M6286 1322 c-3 -5 1 -9 9 -9 8 0 12 4 9 9 -3 4 -7 8 -9 8 -2 0 -6 -4
-9 -8z"/>
<path d="M3888 1163 c7 -3 16 -2 19 1 4 3 -2 6 -13 5 -11 0 -14 -3 -6 -6z"/>
<path d="M2667 1153 c-12 -12 -7 -30 8 -30 8 0 15 5 15 11 0 6 5 4 10 -4 9
-13 10 -13 10 0 1 11 6 9 19 -7 15 -18 21 -20 30 -9 6 7 21 12 33 11 13 -1 26
3 30 9 5 8 8 7 8 -1 0 -7 5 -13 11 -13 8 0 8 4 -1 15 -8 10 -24 13 -46 10 -24
-3 -33 -1 -28 7 4 6 3 8 -3 5 -18 -11 -63 -16 -68 -6 -7 11 -19 12 -28 2z"/>
<path d="M2870 1149 c0 -5 -4 -7 -10 -4 -6 3 -7 -1 -4 -9 9 -23 24 -20 24 4 0
11 -2 20 -5 20 -3 0 -5 -5 -5 -11z"/>
<path d="M2900 1142 c0 -10 7 -19 15 -19 8 0 15 9 15 19 0 10 -7 18 -15 18 -8
0 -15 -8 -15 -18z"/>
<path d="M2958 1139 c-16 -17 -15 -18 3 -16 10 1 19 5 19 10 0 5 7 4 15 -3 12
-10 15 -10 15 1 0 11 2 11 10 -1 6 -10 10 -11 10 -2 0 6 5 12 11 12 5 0 7 -4
4 -10 -3 -5 -1 -10 4 -10 6 0 11 7 11 16 0 12 -8 14 -32 10 -18 -3 -37 -1 -43
3 -5 4 -18 0 -27 -10z"/>
<path d="M3143 1145 c-3 -9 -3 -19 1 -22 3 -4 6 1 6 10 0 8 6 18 13 20 9 4 9
6 -1 6 -7 1 -15 -6 -19 -14z"/>
<path d="M3180 1141 c0 -25 6 -27 13 -6 4 8 2 17 -3 20 -6 4 -10 -3 -10 -14z"/>
<path d="M3316 1145 c-3 -9 -6 -18 -6 -20 0 -1 16 -2 35 -2 19 1 35 6 35 12 0
5 5 3 11 -5 9 -13 10 -13 6 0 -2 8 -17 16 -33 17 -21 2 -25 0 -14 -7 9 -6 10
-10 3 -10 -7 0 -16 7 -21 16 -8 15 -10 15 -16 -1z"/>
<path d="M6588 1133 c5 -23 7 -25 10 -8 2 11 9 23 16 27 6 5 3 8 -10 8 -18 0
-20 -4 -16 -27z"/>
<path d="M6671 1146 c-10 -12 -17 -13 -26 -6 -16 14 -30 -4 -21 -27 5 -11 10
-12 19 -4 10 8 17 7 25 -1 13 -13 26 10 20 38 -3 16 -4 16 -17 0z m-26 -15 c3
-5 1 -12 -5 -16 -5 -3 -10 1 -10 9 0 18 6 21 15 7z m32 -13 c-3 -8 -6 -5 -6 6
-1 11 2 17 5 13 3 -3 4 -12 1 -19z"/>
<path d="M3100 1141 c0 -6 4 -12 8 -15 5 -3 9 1 9 9 0 8 -4 15 -9 15 -4 0 -8
-4 -8 -9z"/>
<path d="M3214 1141 c4 -5 0 -11 -6 -14 -7 -2 -1 -4 15 -4 15 0 27 5 27 11 0
6 4 6 9 -2 7 -11 9 -11 14 2 5 11 1 16 -12 16 -11 0 -22 -6 -24 -12 -4 -10 -6
-10 -6 0 -1 6 -6 12 -12 12 -5 0 -8 -4 -5 -9z"/>
<path d="M3287 1135 c-4 -8 -2 -17 2 -20 5 -2 11 4 14 15 6 23 -8 27 -16 5z"/>
<path d="M6717 1129 c4 -13 8 -18 11 -10 2 7 -1 18 -6 23 -8 8 -9 4 -5 -13z"/>
<path d="M6740 1129 c0 -15 18 -19 23 -6 3 8 -1 14 -9 14 -8 0 -14 -4 -14 -8z"/>
<path d="M3840 1066 c0 -61 9 -81 25 -56 4 6 11 7 17 4 6 -4 8 -2 5 3 -4 6 0
16 8 23 22 18 19 27 -16 39 -21 7 -29 15 -26 26 4 8 2 17 -3 20 -6 4 -10 -20
-10 -59z"/>
<path d="M4103 1109 c-2 -23 3 -25 10 -4 4 8 3 16 -1 19 -4 3 -9 -4 -9 -15z"/>
<path d="M4192 1110 c0 -14 2 -19 5 -12 2 6 2 18 0 25 -3 6 -5 1 -5 -13z"/>
<path d="M4282 1110 c0 -14 2 -19 5 -12 2 6 2 18 0 25 -3 6 -5 1 -5 -13z"/>
<path d="M5495 1120 c3 -5 8 -10 11 -10 2 0 4 5 4 10 0 6 -5 10 -11 10 -5 0
-7 -4 -4 -10z"/>
<path d="M5560 1111 c0 -25 6 -27 13 -6 4 8 2 17 -3 20 -6 4 -10 -3 -10 -14z"/>
<path d="M5672 1110 c0 -14 2 -19 5 -12 2 6 2 18 0 25 -3 6 -5 1 -5 -13z"/>
<path d="M5754 1116 c1 -8 5 -18 8 -22 4 -3 5 1 4 10 -1 8 -5 18 -8 22 -4 3
-5 -1 -4 -10z"/>
<path d="M4171 1104 c0 -11 3 -14 6 -6 3 7 2 16 -1 19 -3 4 -6 -2 -5 -13z"/>
<path d="M4317 1102 c4 -10 8 -11 13 -2 6 9 9 9 13 -1 4 -10 6 -9 6 3 1 11 -6
16 -18 15 -12 -1 -17 -6 -14 -15z"/>
<path d="M4361 1104 c0 -11 3 -14 6 -6 3 7 2 16 -1 19 -3 4 -6 -2 -5 -13z"/>
<path d="M4461 1104 c0 -11 3 -14 6 -6 3 7 2 16 -1 19 -3 4 -6 -2 -5 -13z"/>
<path d="M5613 1105 c0 -8 4 -12 9 -9 5 3 6 10 3 15 -9 13 -12 11 -12 -6z"/>
<path d="M5693 1105 c0 -7 11 -12 25 -12 15 0 19 2 12 7 -9 6 -9 9 1 12 8 3 2
5 -12 5 -14 0 -26 -5 -26 -12z"/>
<path d="M5783 1106 c2 -6 18 -11 35 -12 17 -1 29 2 27 7 -3 4 1 9 7 12 7 2
-6 4 -30 4 -26 0 -41 -4 -39 -11z"/>
<path d="M5523 1095 c0 -8 4 -12 9 -9 4 3 8 9 8 15 0 5 -4 9 -8 9 -5 0 -9 -7
-9 -15z"/>
<path d="M6160 1100 c-17 -11 -20 -30 -7 -47 17 -24 28 -13 12 11 -15 23 -15
25 4 31 27 8 61 -3 58 -18 -1 -7 -9 -18 -17 -25 -12 -11 -12 -13 -1 -10 8 3
19 12 25 22 19 31 -38 59 -74 36z"/>
<path d="M4010 1087 c0 -7 8 -13 18 -13 10 0 19 5 19 11 0 6 -9 12 -19 12 -10
1 -18 -4 -18 -10z"/>
<path d="M6180 1070 c0 -5 5 -10 10 -10 6 0 10 5 10 10 0 6 -4 10 -10 10 -5 0
-10 -4 -10 -10z"/>
<path d="M4010 1052 c0 -14 28 -23 36 -11 3 6 3 13 0 16 -3 4 -6 1 -6 -7 0
-10 -3 -10 -15 0 -9 7 -15 8 -15 2z"/>
<path d="M4103 1026 c1 -11 9 -21 17 -23 10 -3 11 -2 4 4 -6 4 -14 15 -17 23
-5 11 -6 9 -4 -4z"/>
<path d="M4332 1020 c0 -14 2 -19 5 -12 2 6 2 18 0 25 -3 6 -5 1 -5 -13z"/>
<path d="M4353 1017 c0 -7 9 -14 20 -14 11 -1 18 -1 16 0 -2 2 -11 8 -20 15
-12 9 -16 9 -16 -1z"/>
<path d="M3939 1011 c11 -7 11 -9 0 -14 -8 -3 -4 -4 8 -4 17 1 19 4 11 14 -6
7 -16 13 -22 13 -6 0 -5 -4 3 -9z"/>
<path d="M3975 1010 c6 -9 65 -11 65 -2 0 4 -15 8 -34 8 -19 0 -33 -3 -31 -6z"/>
<path d="M6640 1012 c0 -4 9 -8 20 -9 11 -1 18 2 15 8 -7 11 -35 12 -35 1z"/>
<path d="M4230 999 c0 -5 5 -7 10 -4 6 3 10 8 10 11 0 2 -4 4 -10 4 -5 0 -10
-5 -10 -11z"/>
<path d="M6912 980 c0 -14 2 -19 5 -12 2 6 2 18 0 25 -3 6 -5 1 -5 -13z"/>
<path d="M7642 980 c0 -14 2 -19 5 -12 2 6 2 18 0 25 -3 6 -5 1 -5 -13z"/>
<path d="M3856 977 c3 -10 9 -15 12 -12 3 3 0 11 -7 18 -10 9 -11 8 -5 -6z"/>
<path d="M6659 983 c-1 -4 -1 -12 0 -16 1 -5 -2 -6 -7 -3 -13 8 -30 -8 -37
-35 -5 -21 -2 -27 14 -32 57 -14 93 36 52 74 -11 11 -22 16 -22 12z m-2 -69
c-3 -3 -12 -4 -19 -1 -8 3 -5 6 6 6 11 1 17 -2 13 -5z"/>
<path d="M7024 970 c0 -13 4 -16 10 -10 7 7 7 13 0 20 -6 6 -10 3 -10 -10z"/>
<path d="M7206 982 c-3 -5 1 -9 9 -9 8 0 12 4 9 9 -3 4 -7 8 -9 8 -2 0 -6 -4
-9 -8z"/>
<path d="M7275 980 c-4 -7 -2 -17 4 -23 9 -9 10 -7 5 8 -7 20 -7 20 14 1 20
-17 22 -17 28 -2 4 9 4 20 0 23 -3 4 -6 -2 -6 -12 0 -17 -1 -17 -19 -1 -14 12
-21 14 -26 6z"/>
<path d="M7163 965 c0 -8 4 -12 9 -9 5 3 6 10 3 15 -9 13 -12 11 -12 -6z"/>
<path d="M7426 972 c-3 -5 1 -9 9 -9 8 0 12 4 9 9 -3 4 -7 8 -9 8 -2 0 -6 -4
-9 -8z"/>
<path d="M6891 874 c0 -11 3 -14 6 -6 3 7 2 16 -1 19 -3 4 -6 -2 -5 -13z"/>
<path d="M7291 877 c-8 -10 -7 -14 2 -14 8 0 14 6 14 14 0 7 -1 13 -2 13 -2 0
-8 -6 -14 -13z"/>
<path d="M3873 823 c9 -2 25 -2 35 0 9 3 1 5 -18 5 -19 0 -27 -2 -17 -5z"/>
<path d="M3840 786 c0 -8 4 -17 9 -20 5 -4 7 3 4 14 -6 23 -13 26 -13 6z"/>
<path d="M4108 768 c2 -10 6 -18 7 -18 1 0 5 8 7 18 3 11 0 19 -7 19 -7 0 -10
-8 -7 -19z"/>
<path d="M4222 770 c0 -14 2 -19 5 -12 2 6 2 18 0 25 -3 6 -5 1 -5 -13z"/>
<path d="M4314 775 c-4 -8 -10 -15 -16 -15 -5 0 -7 4 -4 8 3 5 -1 9 -9 9 -8 0
-12 -4 -9 -9 7 -12 -10 -10 -22 2 -7 7 -11 7 -11 -3 0 -18 67 -19 74 -1 4 12
8 11 20 -3 13 -16 13 -16 3 5 -13 26 -19 28 -26 7z"/>
<path d="M4372 770 c0 -14 2 -19 5 -12 2 6 2 18 0 25 -3 6 -5 1 -5 -13z"/>
<path d="M4483 774 c0 -11 8 -21 19 -21 22 -2 33 13 17 23 -8 4 -9 3 -5 -4 4
-7 3 -12 -3 -12 -5 0 -14 8 -20 18 -9 15 -10 15 -8 -4z"/>
<path d="M5495 780 c3 -5 8 -10 11 -10 2 0 4 5 4 10 0 6 -5 10 -11 10 -5 0 -7
-4 -4 -10z"/>
<path d="M5560 771 c0 -25 6 -27 13 -6 4 8 2 17 -3 20 -6 4 -10 -3 -10 -14z"/>
<path d="M5586 775 c-9 -26 -7 -32 5 -12 6 10 9 21 6 23 -2 3 -7 -2 -11 -11z"/>
<path d="M5667 770 c-3 -11 -1 -20 4 -20 5 0 9 9 9 20 0 11 -2 20 -4 20 -2 0
-6 -9 -9 -20z"/>
<path d="M5754 776 c1 -8 5 -18 8 -22 4 -3 5 1 4 10 -1 8 -5 18 -8 22 -4 3 -5
-1 -4 -10z"/>
<path d="M4201 764 c0 -11 3 -14 6 -6 3 7 2 16 -1 19 -3 4 -6 -2 -5 -13z"/>
<path d="M4444 768 c4 -20 26 -21 26 -1 0 14 -2 15 -9 4 -6 -9 -10 -10 -14 -2
-4 8 -5 8 -3 -1z"/>
<path d="M5523 762 c1 -14 5 -18 11 -12 7 7 6 14 -1 21 -9 9 -12 7 -10 -9z"/>
<path d="M5613 765 c0 -8 4 -12 9 -9 5 3 6 10 3 15 -9 13 -12 11 -12 -6z"/>
<path d="M5696 764 c-3 -7 6 -11 21 -11 15 0 20 2 13 7 -9 6 -9 9 1 13 8 3 4
4 -8 4 -12 -1 -24 -6 -27 -13z"/>
<path d="M5797 765 c-15 -11 -13 -13 17 -12 19 1 33 4 30 8 -2 4 2 9 8 12 7 2
1 4 -13 4 -14 0 -33 -5 -42 -12z"/>
<path d="M109 506 c0 -9 -1 -32 -1 -51 0 -101 1 -105 22 -105 20 0 21 5 18 82
-3 70 -6 83 -20 86 -11 2 -18 -3 -19 -12z"/>
<path d="M8997 513 c-4 -3 -7 -42 -7 -87 0 -61 3 -77 12 -68 7 7 11 40 11 83
-1 72 -4 84 -16 72z"/>
<path d="M202 334 c7 -6 440 -5 447 1 2 3 -98 5 -224 5 -126 0 -226 -3 -223
-6z"/>
<path d="M3622 333 c566 -2 1490 -2 2055 0 566 1 103 2 -1027 2 -1130 0 -1593
-1 -1028 -2z"/>
<path d="M8591 335 c7 -7 330 -8 336 -1 4 3 -72 6 -167 6 -95 0 -171 -2 -169
-5z"/>
<path d="M342 295 c13 -13 176 -45 278 -54 162 -15 7734 -15 7886 0 94 9 270
44 283 55 2 2 -1898 4 -4224 4 -2326 0 -4226 -2 -4223 -5z"/>
</g>
</svg>
