<?xml version="1.0" standalone="no"?>
<!DOCTYPE svg PUBLIC "-//W3C//DTD SVG 20010904//EN"
 "http://www.w3.org/TR/2001/REC-SVG-20010904/DTD/svg10.dtd">
<svg version="1.0" xmlns="http://www.w3.org/2000/svg"
 width="380.000000pt" height="289.000000pt" viewBox="0 0 380.000000 289.000000"
 preserveAspectRatio="xMidYMid meet">

<g transform="translate(0.000000,289.000000) scale(0.100000,-0.100000)"
fill="#000000" stroke="none">
<path d="M0 2860 c0 -11 5 -20 10 -20 6 0 10 9 10 20 0 11 -4 20 -10 20 -5 0
-10 -9 -10 -20z"/>
<path d="M11 2743 c1 -10 4 -29 8 -43 10 -35 22 -10 15 29 -7 33 -25 43 -23
14z"/>
<path d="M43 2574 c6 -37 13 -51 22 -43 8 9 -7 79 -18 79 -6 0 -7 -15 -4 -36z"/>
<path d="M78 2455 c-8 -9 14 -75 24 -75 5 0 7 15 3 33 -8 35 -18 51 -27 42z"/>
<path d="M1660 2366 c0 -12 10 -16 35 -16 19 0 35 5 35 10 0 6 -9 10 -19 10
-11 0 -26 3 -35 6 -11 4 -16 1 -16 -10z"/>
<path d="M1512 2363 c-6 -2 -10 -8 -8 -12 7 -10 76 -1 76 10 0 9 -46 11 -68 2z"/>
<path d="M1810 2343 c0 -5 16 -14 35 -20 29 -9 35 -9 35 3 0 8 -6 14 -12 14
-7 0 -23 3 -35 6 -13 4 -23 2 -23 -3z"/>
<path d="M1392 2314 c-33 -23 -27 -37 8 -19 17 9 30 20 30 25 0 14 -12 12 -38
-6z"/>
<path d="M135 2273 c18 -43 21 -47 28 -36 7 12 -20 73 -33 73 -6 0 -4 -14 5
-37z"/>
<path d="M1963 2285 c10 -7 24 -21 31 -31 9 -11 15 -13 20 -6 9 15 -29 52 -51
52 -17 -1 -17 -2 0 -15z"/>
<path d="M1282 2204 c-15 -23 -18 -34 -9 -34 15 0 51 57 39 63 -4 3 -17 -10
-30 -29z"/>
<path d="M190 2160 c0 -6 7 -24 15 -41 22 -42 38 -26 18 16 -16 34 -33 46 -33
25z"/>
<path d="M2038 2165 c-9 -9 7 -68 19 -72 8 -3 9 7 3 32 -9 39 -14 48 -22 40z"/>
<path d="M1226 2083 c-2 -10 -7 -28 -11 -40 -4 -13 -2 -23 4 -23 5 0 12 8 15
18 2 9 7 27 11 40 4 12 2 22 -4 22 -5 0 -12 -8 -15 -17z"/>
<path d="M270 2023 c0 -15 37 -63 43 -57 8 8 -23 64 -35 64 -4 0 -8 -3 -8 -7z"/>
<path d="M2046 1978 c-3 -13 -6 -32 -6 -42 0 -29 17 -7 25 32 7 36 -9 45 -19
10z"/>
<path d="M1200 1900 c0 -22 5 -40 10 -40 6 0 10 18 10 40 0 22 -4 40 -10 40
-5 0 -10 -18 -10 -40z"/>
<path d="M365 1901 c-7 -12 41 -68 50 -59 4 4 -4 21 -18 38 -14 16 -28 26 -32
21z"/>
<path d="M1981 1821 c-23 -32 -26 -41 -12 -41 15 0 52 58 42 64 -5 4 -19 -7
-30 -23z"/>
<path d="M470 1784 c0 -11 45 -43 60 -43 10 0 5 8 -13 24 -27 24 -47 32 -47
19z"/>
<path d="M1215 1743 c7 -41 12 -50 21 -41 9 9 -7 78 -18 78 -6 0 -8 -14 -3
-37z"/>
<path d="M1855 1706 c-16 -13 -28 -27 -25 -30 8 -7 70 31 70 44 0 16 -13 12
-45 -14z"/>
<path d="M597 1693 c-10 -9 52 -45 64 -37 6 3 -3 15 -20 25 -36 21 -35 21 -44
12z"/>
<path d="M1713 1638 c-30 -10 -46 -28 -24 -28 19 0 71 23 71 31 0 11 -5 10
-47 -3z"/>
<path d="M730 1623 c0 -11 44 -33 65 -33 24 0 17 17 -9 24 -13 3 -31 9 -40 12
-9 3 -16 2 -16 -3z"/>
<path d="M1244 1585 c7 -34 6 -35 -24 -35 -16 0 -30 -4 -30 -10 0 -10 72 -14
82 -5 9 9 -13 85 -24 85 -6 0 -8 -14 -4 -35z"/>
<path d="M1551 1591 c-14 -4 -26 -12 -29 -19 -2 -7 2 -10 10 -8 7 2 25 7 41
10 15 4 27 11 27 16 0 11 -13 11 -49 1z"/>
<path d="M880 1571 c0 -12 68 -27 77 -17 9 9 2 13 -39 20 -23 4 -38 3 -38 -3z"/>
<path d="M1378 1563 c-33 -5 -37 -23 -5 -23 33 0 67 11 67 21 0 9 -12 9 -62 2z"/>
<path d="M1035 1540 c3 -5 22 -10 41 -10 19 0 34 5 34 10 0 6 -18 10 -41 10
-24 0 -38 -4 -34 -10z"/>
<path d="M1280 1456 c0 -2 8 -21 17 -42 10 -24 18 -33 20 -23 5 21 -14 69 -27
69 -5 0 -10 -2 -10 -4z"/>
<path d="M1347 1304 c-7 -13 19 -74 33 -74 14 0 12 9 -9 49 -10 19 -21 30 -24
25z"/>
<path d="M1410 1153 c2 -21 38 -75 44 -65 8 13 -20 72 -34 72 -6 0 -10 -3 -10
-7z"/>
<path d="M1497 1013 c-8 -12 33 -74 44 -67 8 4 -1 22 -37 72 -1 2 -4 -1 -7 -5z"/>
<path d="M1580 873 c1 -15 49 -67 56 -61 8 8 -33 68 -47 68 -5 0 -9 -3 -9 -7z"/>
<path d="M1689 732 c13 -25 40 -46 48 -38 7 7 -36 56 -49 56 -5 0 -4 -8 1 -18z"/>
<path d="M1815 600 c16 -16 33 -30 39 -30 5 0 -3 14 -19 30 -16 17 -33 30 -39
30 -5 0 3 -13 19 -30z"/>
<path d="M1911 513 c1 -14 60 -56 67 -48 4 4 -6 18 -23 31 -31 24 -45 30 -44
17z"/>
<path d="M2040 411 c0 -11 45 -41 62 -41 7 1 0 12 -17 25 -32 26 -45 31 -45
16z"/>
<path d="M2180 321 c0 -6 13 -17 30 -26 33 -17 40 -18 40 -7 0 8 -14 16 -62
40 -5 2 -8 -1 -8 -7z"/>
<path d="M2320 243 c0 -5 16 -17 35 -26 28 -13 35 -14 35 -3 0 8 -8 16 -17 19
-10 2 -26 8 -35 12 -10 4 -18 3 -18 -2z"/>
<path d="M2470 176 c0 -15 61 -39 72 -28 5 5 -9 16 -32 25 -29 11 -40 12 -40
3z"/>
<path d="M2620 122 c0 -6 14 -15 31 -21 39 -13 49 -14 49 -2 0 9 -8 12 -62 27
-10 3 -18 1 -18 -4z"/>
<path d="M2783 77 c4 -12 66 -31 75 -23 9 9 -4 17 -43 26 -25 6 -35 5 -32 -3z"/>
<path d="M2940 41 c0 -5 16 -11 36 -13 34 -4 50 3 37 16 -10 9 -73 7 -73 -3z"/>
<path d="M3750 40 c0 -5 9 -10 20 -10 11 0 20 5 20 10 0 6 -9 10 -20 10 -11 0
-20 -4 -20 -10z"/>
<path d="M3100 20 c0 -5 18 -10 40 -10 22 0 40 5 40 10 0 6 -18 10 -40 10 -22
0 -40 -4 -40 -10z"/>
<path d="M3590 20 c0 -13 67 -13 75 0 4 6 -10 10 -34 10 -23 0 -41 -4 -41 -10z"/>
<path d="M3260 10 c0 -5 18 -10 40 -10 22 0 40 5 40 10 0 6 -18 10 -40 10 -22
0 -40 -4 -40 -10z"/>
<path d="M3425 10 c8 -13 72 -13 80 0 4 6 -12 10 -40 10 -28 0 -44 -4 -40 -10z"/>
</g>
</svg>
